<mxfile host="Electron" agent="Mozilla/5.0 (Windows NT 10.0; Win64; x64) AppleWebKit/537.36 (KHTML, like Gecko) draw.io/24.7.8 Chrome/128.0.6613.36 Electron/32.0.1 Safari/537.36" version="24.7.8">
  <diagram name="11_print_elements_less_than_five" id="KyJUvcKeK11RTsGHfe_2">
    <mxGraphModel dx="1594" dy="932" grid="1" gridSize="10" guides="1" tooltips="1" connect="1" arrows="1" fold="1" page="1" pageScale="1" pageWidth="850" pageHeight="1100" math="0" shadow="0">
      <root>
        <mxCell id="0" />
        <mxCell id="1" parent="0" />
        <mxCell id="kse7wbe-E2ncAyoVyV04-2" value="Define the list &#39;a&#39;" style="whiteSpace=wrap;strokeWidth=2;" vertex="1" parent="1">
          <mxGeometry x="734" y="863" width="135" height="33" as="geometry" />
        </mxCell>
        <mxCell id="kse7wbe-E2ncAyoVyV04-3" value="Loop through each element in &#39;a&#39;" style="whiteSpace=wrap;strokeWidth=2;" vertex="1" parent="1">
          <mxGeometry x="677" y="947" width="249" height="33" as="geometry" />
        </mxCell>
        <mxCell id="kse7wbe-E2ncAyoVyV04-4" value="Check if element &amp;lt;= 5" style="whiteSpace=wrap;strokeWidth=2;" vertex="1" parent="1">
          <mxGeometry x="490" y="1049" width="192" height="33" as="geometry" />
        </mxCell>
        <mxCell id="kse7wbe-E2ncAyoVyV04-5" value="Print or store the element" style="whiteSpace=wrap;strokeWidth=2;" vertex="1" parent="1">
          <mxGeometry x="617" y="1150" width="203" height="33" as="geometry" />
        </mxCell>
        <mxCell id="kse7wbe-E2ncAyoVyV04-6" value="Skip to next element" style="whiteSpace=wrap;strokeWidth=2;" vertex="1" parent="1">
          <mxGeometry x="899" y="1150" width="165" height="33" as="geometry" />
        </mxCell>
        <mxCell id="kse7wbe-E2ncAyoVyV04-8" value="" style="curved=1;startArrow=none;endArrow=block;exitX=0.5;exitY=1;entryX=0.5;entryY=0.01;rounded=0;exitDx=0;exitDy=0;" edge="1" parent="1" source="kse7wbe-E2ncAyoVyV04-17" target="kse7wbe-E2ncAyoVyV04-2">
          <mxGeometry relative="1" as="geometry">
            <Array as="points" />
            <mxPoint x="801" y="813" as="sourcePoint" />
          </mxGeometry>
        </mxCell>
        <mxCell id="kse7wbe-E2ncAyoVyV04-9" value="" style="curved=1;startArrow=none;endArrow=block;exitX=0.5;exitY=1.02;entryX=0.5;entryY=-0.01;rounded=0;" edge="1" parent="1" source="kse7wbe-E2ncAyoVyV04-2" target="kse7wbe-E2ncAyoVyV04-3">
          <mxGeometry relative="1" as="geometry">
            <Array as="points" />
          </mxGeometry>
        </mxCell>
        <mxCell id="kse7wbe-E2ncAyoVyV04-10" value="" style="curved=1;startArrow=none;endArrow=block;exitX=0.22;exitY=1.01;entryX=0.5;entryY=-0.01;rounded=0;" edge="1" parent="1" source="kse7wbe-E2ncAyoVyV04-3" target="kse7wbe-E2ncAyoVyV04-4">
          <mxGeometry relative="1" as="geometry">
            <Array as="points">
              <mxPoint x="586" y="1014" />
            </Array>
          </mxGeometry>
        </mxCell>
        <mxCell id="kse7wbe-E2ncAyoVyV04-11" value="Yes" style="curved=1;startArrow=none;endArrow=block;exitX=0.5;exitY=1;entryX=0.28;entryY=0.01;rounded=0;" edge="1" parent="1" source="kse7wbe-E2ncAyoVyV04-4" target="kse7wbe-E2ncAyoVyV04-5">
          <mxGeometry relative="1" as="geometry">
            <Array as="points">
              <mxPoint x="586" y="1116" />
            </Array>
          </mxGeometry>
        </mxCell>
        <mxCell id="kse7wbe-E2ncAyoVyV04-12" value="No" style="curved=1;startArrow=none;endArrow=block;exitX=1;exitY=1;entryX=0.3;entryY=0.01;rounded=0;" edge="1" parent="1" source="kse7wbe-E2ncAyoVyV04-4" target="kse7wbe-E2ncAyoVyV04-6">
          <mxGeometry relative="1" as="geometry">
            <Array as="points">
              <mxPoint x="879" y="1116" />
            </Array>
          </mxGeometry>
        </mxCell>
        <mxCell id="kse7wbe-E2ncAyoVyV04-13" value="" style="curved=1;startArrow=none;endArrow=block;exitX=0.71;exitY=0.01;entryX=0.56;entryY=1.01;rounded=0;" edge="1" parent="1" source="kse7wbe-E2ncAyoVyV04-5" target="kse7wbe-E2ncAyoVyV04-3">
          <mxGeometry relative="1" as="geometry">
            <Array as="points">
              <mxPoint x="850" y="1116" />
              <mxPoint x="850" y="1014" />
            </Array>
          </mxGeometry>
        </mxCell>
        <mxCell id="kse7wbe-E2ncAyoVyV04-14" value="" style="curved=1;startArrow=none;endArrow=block;exitX=0.53;exitY=0.01;entryX=0.76;entryY=1.01;rounded=0;" edge="1" parent="1" source="kse7wbe-E2ncAyoVyV04-6" target="kse7wbe-E2ncAyoVyV04-3">
          <mxGeometry relative="1" as="geometry">
            <Array as="points">
              <mxPoint x="996" y="1116" />
              <mxPoint x="996" y="1014" />
            </Array>
          </mxGeometry>
        </mxCell>
        <mxCell id="kse7wbe-E2ncAyoVyV04-15" value="All elements checked" style="curved=1;startArrow=none;endArrow=block;exitX=1;exitY=0.5;rounded=0;exitDx=0;exitDy=0;entryX=0.5;entryY=0;entryDx=0;entryDy=0;" edge="1" parent="1" source="kse7wbe-E2ncAyoVyV04-3" target="kse7wbe-E2ncAyoVyV04-18">
          <mxGeometry x="-0.1106" y="-26" relative="1" as="geometry">
            <Array as="points">
              <mxPoint x="1210" y="1070" />
            </Array>
            <mxPoint x="1220" y="1230" as="targetPoint" />
            <mxPoint as="offset" />
          </mxGeometry>
        </mxCell>
        <mxCell id="kse7wbe-E2ncAyoVyV04-17" value="&lt;font style=&quot;font-size: 24px;&quot;&gt;Start&lt;/font&gt;" style="ellipse;whiteSpace=wrap;html=1;fillColor=#008a00;fontColor=#ffffff;strokeColor=#005700;" vertex="1" parent="1">
          <mxGeometry x="709.38" y="690" width="184.25" height="83" as="geometry" />
        </mxCell>
        <mxCell id="kse7wbe-E2ncAyoVyV04-18" value="&lt;font style=&quot;font-size: 24px;&quot;&gt;End&lt;/font&gt;" style="ellipse;whiteSpace=wrap;html=1;fillColor=#e51400;fontColor=#ffffff;strokeColor=#B20000;" vertex="1" parent="1">
          <mxGeometry x="1129" y="1240" width="184.25" height="83" as="geometry" />
        </mxCell>
        <mxCell id="kse7wbe-E2ncAyoVyV04-19" value="&lt;font style=&quot;font-size: 48px;&quot;&gt;11.&amp;nbsp; Take a list, say for example this one:&lt;br&gt;&lt;/font&gt;&lt;blockquote style=&quot;margin: 0 0 0 40px; border: none; padding: 0px;&quot;&gt;&lt;blockquote style=&quot;margin: 0 0 0 40px; border: none; padding: 0px;&quot;&gt;&lt;font style=&quot;font-size: 48px;&quot;&gt;&amp;nbsp;a = [1, 1, 2, 3, 5, 8, 13, 21, 34, 55, 89]&lt;/font&gt;&lt;/blockquote&gt;&lt;blockquote style=&quot;margin: 0 0 0 40px; border: none; padding: 0px;&quot;&gt;&lt;font style=&quot;font-size: 48px;&quot;&gt;&amp;nbsp;and write a program that prints out all the elements of the list that are less than 5.&lt;/font&gt;&lt;/blockquote&gt;&lt;/blockquote&gt;" style="text;whiteSpace=wrap;html=1;" vertex="1" parent="1">
          <mxGeometry x="320" y="30" width="1170" height="360" as="geometry" />
        </mxCell>
        <mxCell id="kse7wbe-E2ncAyoVyV04-20" value="" style="shape=image;verticalLabelPosition=bottom;labelBackgroundColor=default;verticalAlign=top;aspect=fixed;imageAspect=0;image=data:image/png,iVBORw0KGgoAAAANSUhEUgAAA20AAAHSCAYAAAB/8SNDAAAAAXNSR0IArs4c6QAAAARnQU1BAACxjwv8YQUAAAAJcEhZcwAAEnQAABJ0Ad5mH3gAAHlvSURBVHhe7f1/aCT7fef/vs7RH+NAWhV2h4F1q9aL5SPL7f5jzzcxUu3qmhODTk/Q9caEzsH5496zBAQiCfM9Y2PMF4KdGMOXYGKxwmsGBGG994+YSROON1+xkhsckzu7pcbxTf5ot9ty+nzHlOoExGyguvyPJgjfP6qqVV1d3arqH5rW6PmAZqa7S5/+1Kc+VV3v/vx65enTp7/QCKZpJl8CAAAAAFyTV5MvAAAAAADmB0EbAAAAAMwxgjYAAAAAmGMEbQAAAAAwxwjaAAAAAGCOEbQBAAAAwBwjaEvht+uq1WpquMl3ZsRtXO/nAQAAALgxJg7a/HZdtXpbfvjcbdT6ns8bv11XvdYQ8VEevtxGXfXafB9bAAAA4GU0cdDW9TxpsaCCJMmX31Xs+fzpep685ItI5wfBWq12JNuh3AAAAIAXYcKgLQjSDGMxfN6Vx539S8NtBcGaZKhslWUmNwAAAAAwc688ffr0F8kX40wz7VbdVaNmy0m+nGRaqq4Vk68O57dVP2pq0apq6bQeBAxGWZXNotzGsZqOJ8O0tNmXpi+33VKr6YQtQYYMs6T1teJla5/bUM0enVujXNHmathe2K7rqOnJtKoq+Q0dR2kbpsrrawo3i/HlNo7VirVGGYap0vqaimnbtltqOc5AgGtaVeUprjRuoy7bkUxrc+K05LZVPy2EZRkec6Osyubq3LakAgAAAC+bCVvaZqPbCgM2SfIctcKALXjaUjs2qMptHMnuBWyS5MlzbB1NPPbKULdV11E8bc9R8yg5Hs5Xuz7YfdDzHNlH9b68BsFdmN+ZtEi6OnU8SZ6c1qT7L6m4qs148AsAAADg2o3Z0hYJWl8UtRDFWsrGauUJ/96LWr4KrV4LWdDqddkCtlaMtaCZliq94CJo9bKd2HYxbqMm2zFlVdc0LItRS5skGaYVtjSFAZfT3yLW29Yoy1pfDVvWLvPQ19oY5bdvW8l3GzqyndT85nXZ0rautcFmvgnQ0gYAAAC8CJO1tPm+ujJ0OaTNkxd/Pi6jrPV4H0SjrFJRKhT6E3ZPHUmmrL7WoIKKayWZkpzTCeeIDLtiBmkXVFwKAtiuH7Vh+XIdL8jD5mUQFuRhXWVDknMatsz5arfC/PZtq6kGQMW1TVWrm1MO2AAAAAC8KGMFbdE6ZrWjpjx5ah7Vgue2I/WeJ7sGZmeY/V3yks8D4UyVcmTXws/vPcLxdl1/oi6C5tJVzV7hxCvmUkqrXUFBjNlVL8aTJMPQpDEtAAAAgNtjrKAN42BmTQAAAAD5jRW0FVY3Va1WVSkbQXe/alXValWWGXRlrFSrqlY3U2ZZnKawJav3eSmPoWOvEq1fk+p1gYyLWgIXVSgE/xqGJM9TN7Fl0M0TAAAAAAaNFbRFun1NR1GQcn0WDUPymjpuuJmDsMUgcpLjuhN1nQwUFQxzc2Q34ukFE5E0+7pORt0lHbWifqO+q3a9pitWI8glWAy7rsZgFAkAAADgBlp45513/ij5YpxhGMmXeny3pdNX/rU+vnxXd/Rcz97r6GxxWa8vjTlq6/kzvdc5k+59RMt370i+q9ZpVx9IPDfMkpYWpTt37+lVtyPn7FSdTkutVv/DN4Lt4u6cP1PrtKvzs1N1Ytu6r5rBZ0h6/uw9dc7Oe5/Tk8yPpMUlQ37rVN1uPL2OTrvnkmHK+uTHemPYFo1X5XbO5J11gu06pzo7lwzT1Ae6Xd1Jfl5urn58/A/q6lxd/1WZy3cV5HJMbkO17x6H+3QatBCen13upzuFzwAAAAAw0gQtbcmWtRcxZqug1c2KLNPQ8NAyobimimUGXRWnoqi1iqWyGU/QkGFaqmwmlhUorGrTKl9+tmHItCraLE0rM0UtmYYkQ2YpbfIWAAAAADfNhOu0AQAAAABmaYKWNgAAAADArBG0AQAAAMAcI2gDAAAAgDlG0AYAAAAAc4ygDQAAAADmGEEbAAAAAMwxgjYAAAAAmGMEbUDPoXY2dnSYfDm3aaUDAAAAzCBoa+98Vl9Z+Ky+svOD5FtjeF/tvW/o0UKYZvj4S+6Gx9dpaGPh61roexwQYKijvY0t7duSOsn3cupIsve1tUDgBgAAgMlNPWibpvbO5/T44ROdJd+44TqHDe1s/Fct7PxD8i1MwTjle7izooe2pd2TR7q/nHw3p+X7enSyK0v72tohbAMAAMBk5jdo63xH398P/ntv9/P6vYtv60vh47fuJze+Sf5JB1/9H9q3nyXfuB7La3py8TldXHxOJ7t3k+++BMYo38Mdbe1L1u639GDSgC2y/EDf2rWk/S0RtwEAAGAS8xu0/dQJW9g+pPLWJ/QyhheYBx3tfXVfsnb1ralFbIHlB3+obUn7X92buMclAAAAbq8Jg7b31d75Yt+Ys8dh69igwfFpj3a+o/bM72b/SXsbwditoS0ehwfB2K6NRu/mutfFLjb2a2PjQHuJ/B7uhO/t/ZM6hwex8WL/VTt7/9TbrrMXpfVf9NAOX9z/b/3px7bP7590uBf//K9rY6ehw4nLN0O6YfntHF6W9cJGQ53OP2gnfL4x0FUxQ7rXUb6HX9NDW7Le2tLIkK1zqL2dDW0sLGghfGxs7Azkt999fWHXkuyH+tqwuhc63NnQwsLG8DoKAACAW2uCoO0H+suFz+nx/s8yjDl7X082Bsenne3/uR6vfEPt6IXOdy6Duq0n4Ys/0/dWYhORbHxHOTq+9WmepNy0x5X/ZXDj3mno7a3BLna2/RM9XPmvA4GbJNkP/4tWtn6iKF6Qnmn/4X+5ppvwf9Lexn/R1sP450v2/v/Q1sokk4zkS3d/KxYw2f9DKyv/LZjYQ5K9/99iZZEvXc2wfA/f3Zdk6a2tUSFbR3tvb+nhvt2fX3tfWyujJxtZ3npLlqT9d0dtdah3921JNq1yAAAAGDB20Nbe+VM1paD74sHXe+PN3tpObik92/tP+p4dbPupaNuTz6ssSXqix1OZaXKYf6GV4IOG6pz8L0mSVfoXvdfK2/9eByf/URfh+K+Lk38vS5L0TI8PhgR/1r/XwcnndHHxHxQVw/67QQvT8oP/d5jWf9RukJC0/R8u07/4nJ48uPz8PDp7/1cYLN3V7kGY55MoDz/R1kArVzbjpLt98B9jY+XuavfkczoICyMKmsdJV5pF+XZ00pRkvaWRMZsklbe1e3Cii4uL8HES7te+RsZjy1t6y5LUPBkRjN3XZ7YtSZa2//CKFj8AAADcOmMGbT9QqzdJyP+u37r/weQGMe+r/fhnUrjtRrTt8if0yd0PBf9vvh+0ni3/pnaiCUcONsK//5A+dXI5CcmXnvxm7vFtr5WCv7BbUdAQdKWLusv9tBW0qJVXwpv65TU9erSm+8uxm/zl14Kb71g6/T6qgydr4cyDH9FnUoLX2fgnHTwO8m/t/j/14H60Dx/RF6Lgqfm/RgQMw4yRrvXv9YVoO0na/ncpE3uMka40o/L9qVq2pPLKFYHSsh48eqQHfdNKLut+pkwsBz8a2C39NPlWzP1HT3Rx8USPJp66EgAAAC+b8YK2zvu9bo73VkYFbJLk6izsU3b28HN9661982EQzMl2xu7ymMXyyr+MPbsMGuzHP00JDgLBeKz/GhtDFev6l8a6q9eSr12LfwoCj7ALYXwM18rDsFTtZyMDhnRjpBt1Lw3FWy4vjZGuXmT5hjqH2tnY6I1nW1hY0MLW0AGcAAAAwNSMF7TdNK/dDbo2Nv+XOp2f6rEtWdZdyf6JDjr/FHSR012Voqjg8CAcj/WsbwwTbqnOnjZWtrRvUxsAAABw/aYctL2vZ8FAt5ii7oXdCu/tXo5963/8gVaTfzZNy/8yGD9nP9NPD34iW3f11h9+VFbf+LR/qZVlBZNkfPUnwUu9MVSJsVJz5V+oFObL2o2Nwet7bCn/0nY3Ld1xvBbkZeR4M+nwaw9lS7J2D3TSG9N2oYtosN5I0bi50ottKQQAAMCNNV7QtvwJlcMb7+ZXo9kcgxkigwlH4j6o1beCsWtnD/+T/vLw/eQG1yAKFP6Xvvr4mWR9VFv3gzFq9uP/qcf2kO53Zem1MJA77E2eManYxCj7P7liyvgs/oW23grH7D38v7RzmDbebhw3Ld1InvKNxps91sHI7QLlldd63T87h3va+WqG7pGdg6B+XTFujin/AQAAMMx4QVssEJP95/rmwmf1lYUgYLtnha/H3H1QDYO8n6m51T+u7SsLn9WjvesK5J7JtiXrrde0HAUPURfI3nis+E3//9BKOJ5tKxpvNQX3P/PR8H8/0dbKFeuIZbD84N9p21IwDf5W/zixZLqX65nFxpDpJ9qKto+tVZcn3TxmlW4kT/kGk4nYejwianstbBrc31rpjWdb2XrYW85glM7BY9mStj8zqu2QKf8BAAAw3JhBm3T3wZ/o93Y3dK/3SjD1/84fmn3bBT6h33rydb21/aHY9tcpPu3/Xb21FUyQEZ+gJD5pxv1H/1EH2/E5Ku9qe/c/xKayn9D9LZ3sflTW1LpbfkSPngR5nlqS0g1MN5SnfO9/QcH6118but7a8oMnOtndjuXVkrV9oJOD3Svy39HBY1uydvWFUTEbU/4DAABghFeePn36i+SLcaaZFoQBL5HDHS1s7cvaPdGTwTUKxtbZ29DKQ1vbBxd6NDJoAwAAAIYbu6UNeGncf6SDbcl++Lb2ptU3sbOntx/a0vYBARsAAAAmQkvb3PkH7Sz8N2WY4iJYcPraZlp82R1qZ2FL+9rWwcmjcBHvMXUOtbOypX1rVydPHtDdEQAAABOhpQ2QJN3Xo4uDYIKUSaOsZUnWtg4I2AAAADAFtLQBAAAAwByjpQ0AAAAA5hhBGwAAAADMMYI2AAAAAJhjBG03QGdvQwsLC9rYGbb8MwAAAICX1S0N2t5Xe+8berTwWX0l9vjLuYyJOjp4bEuS7P13Nc0stve+qK8sfFaPdr6jZ8k3AQAAAMyFWxm0tXc+p8cPn+gs+cZcWtbWW5Ykydr+zBTXZPuBWg9/Jkk62/+fak9rUWkAAAAAU3X7pvzvfEePVv5cZ5Lu7X5e1Qef0N3kNrdEe++LevzwZ7q3/TuqPvrNW1sOAAAAwDy7fUHb4Tf0la0nkj6kT538iTZY/RgAAADAHLuV3SMz6fxAT3a+2Dfu7dHGNwa7ER5+I3h/4zt6pvfV3gnGiU0+VuxQOwsLWog/pjERSZTfvsc31E5uJ6m9E+7H3vt6dhgfA/hF/eXe+8nN8+kcam9nQxux/dvY2NFhsnxjDnc2tLCwoWkUAwAAAHBT3I6grfOdy4Bj60n44s/0vZVY4LIRC7A639GjlT/V9/Z/1jfu7cx+oscrX0yfsMR29Dc7n9Pj/WCcmCSd7f+5vrnzg77NbqKzh5/TN7fiYwB/pubDz6WXQyYd7b29pYf7toIpVgK2va+tlZ0hk60c6t19W5Kt/a/uaURsBwAAALxUbkfQlsv7evJ2MOZN2tBbJ9/Wly6+rS+dfF5lKQhYvprWgvZEzX2pfPB1feni2/q93Q8FL+83UluxrnZfjy4udHFxoYuLA20n3x7X/T8I9ieexyys3wnLIioHqfnuBAFpeVu7Byfh/l3o4uJEB9uStK93U6O2+/rMtiXJ0vYfbolerQAAALgtbkfQtvyb2gkDlS8dbIQvfkifigKyi2/rS0/CiTg6P1AzbP65t/tbWo2ig+VP6Leiv7XTZ1u8t/t1/db9D0qS7q5EYwEdPUvZ9mbZ0FtPfjMsi0+oNHEEuawHjx7pwf146LWs+58ZnfD9R090cfFEj/r+DgAAAHi53Y6gLY+fOmEr24dU3goCsJ7XTN2TJP1MZz/tf2tg+16L1ksw2YllTn9myc6hdjaCRcN7j6395FYAAADArUfQhuvX2dPGypb27fiINgAAAABpCNqSRrSmPTv4n71WuHuv9b+H7A6/9lC2JGv3QCe9MW0XuggGtQEAAACIIWhLWv6Eylbw3+ZWbIr/zg/0Nw/DmSGtf3c51g1jK6+81ptQpHO4p52vju4eyZT/AAAAuI0I2gZ8UBt/uBG2tj3R42hZgJU/VVMKJjD5VjhpySwd7sTGe21pX5L2ty7XNNsbb3aTZ3uX68h9MwpC9USP05Y+mJHXSkFUvL+10tufla2H2h/ZW5Ip/wEAAHA7EbSluf8H2jn5vMpWfEr8D+ne9u/orZOXYGKRF2z5wROd7G4rbNCUZMnaPtDJwW7stSSm/AcAAMDt9MrTp09/kXwxzjSjqesBAAAAANeNljYAAAAAmGMEbQAAAAAwxwjaAAAAAGCOEbQBAAAAwBwjaAMAAACAOUbQBgAAAABzjKANAAAAAOYYQRsy6extaGFhQRs7h8m3AAAAAMwQQdsN0N77or6y8Fk92vmOniXfHPC+2nvf0KOFz+orscdfThRrdXTw2JYk2fvvaqKkAAAAAORC0Db3fqDWw59Jks72/6faneT7/do7n9Pjh090lnxjIsvaesuSJFnbn9H95Ns30qF++BsL+qu0x+/v6efJzQEAAIAXhKBt7n1Cpd0PSZLubf87rS4n34/pfEff3w/+e2/38/q9i2/rS+HjtyaMtJYfPNHFxYWePJowIQAAAAC5vPL06dNfJF+MM00z+RLm1eE39JWtJ5I+pE+d/Ik2RgV4c6ejw5239W7pW3r04Doyfqgf/saW/N890Ru/fR2fBwAAAIyHlrZ5dfiNvjFpweMbaie3m6lD7SwsaCH+mMlEJB3tbaxoa99WM/nWnDnc2dDCwoZmUgwAAABACoK2m67znctJR7aehC/+TN9biQV7G1kmMHlBOofa2VjRQ9vS9sGJnlxLK9u4DvXuvi3J1v5X93TF8EIAAABgKgja5tX9P+iNR/u9cEzb9buvRxcXuri40MXFgbaTb0+qs6eNlS3t25Z2T57o0f3BgO1wJ9HSl3xsTBY8+X+2EpuAZEM//IvDEZOQ3Ndnti1Jlrb/cEuDuQUAAACmj6Dtplv+Te1EE44cbIQvfkifOrmchORLT35TdxN/9qJ19ja0sPJQtrWrk4snmosGtvdsvf9nW/rrEbNH3n/0RBcX6QEmAAAAMAsEbbh2ncMdrTy0JWtbB08ejGyxuv8oaukb8rji74e7r1/97xf6dOzx6/u7+qAkvfdQf/sXk7TfAQAAANND0IZrt3z/kU52Lcne19bGztws1v3LSw/0q1+eeidQAAAAYCIEbXghlh880cXJrix7X1sLG9ob0rA16zFtST935n3+SgAAANw2BG14cZYf6MnJgbYtWw9XNrRzOM3wK6+Ofn68o7/9M1uSpQ9a6Z0umfIfAAAA143FtefUs70v6psPf5Z8+ZL1O/q95AQj015c+3BHC1v7yVd7rN1pTdEfrNP20J5mmlc43tFf/XHavln64Jef6FfXk68rXLduS/uSZO3qZOzxdAAAAEB2tLRhDizrwZMTHWxbKiffujaWCp/a1a/tDwvYxJT/AAAAeCFoaQMAAACAOUZLGwAAAADMMYI2AAAAAJhjBG0AAAAAMMcI2gAAAABgjhG0AQAAAMAcI2gDAAAAgDlG0AYAAAAAc4ygDTfGs70v6isLn9WjnR8k33oBDrWzsaPD5Msxnb0NLSwsaGNn1FZXpwMAAIDbjaANN8T7aj/+mSTpbL+hdvLta9XR3saW9m1JneR7kY4OHtuSJHv/3eFBWUeSva+tBQI3AAAApCNoww3xQa2+9SFJ0r3tNa0m3x7Ts70v6tHCN3IFgYc7K3poW9o9eaT7y8l3I8vaesuSJFnbn9H95NuR5ft6dLIrS/vaGtkiBwAAgNvqladPn/4i+WKcaZrJl4CXRnvns3q8v6G3Lv4gWyB4uKOFrX1Zuyd68mBoxJZbZ29DKw9tbR9c6NHQCA8AAAC3ES1tQGYd7X11X7J29a0pBmyStPzgD7Utaf+re8N7XAIAAOBWoqUNU/Fs74v65kPpUyd/otWDb6j28InOJMna0Ke+9Qfa6ItxfqC/XPhTne1+XTsPpCc7/0nf2w/Gq93b/h1VH/2m7ia2bcb+Wtuf15cefSL+itSXh/9ddw/+Ut8flofDb+grW0/6/zjh3u7XtfPgg/0vZmplO9TOwpb24y9tH+giQ/MZrW0AAABIQ0sbpqr59mf1zShYkiT7ib638kU9SWs+av1Af7nwuV7AJkln+3+ub040O+TP1Hz7c3o8kId849bSHL67L8nSW1vDArbJLG+9JUvS/ruMbQMAAMAlgjZM0c90Zkv3tj+v37v4tr508XW9tfuhIJA6eD+5sc72/1xNfUifOvi6vnTxbX3p5PMqS1Lf7JCf0G9dfDt4/yJ8/woDediWpCdqRbHQ/T8I0/t2+N6G3up9RvAYaGVTRydNSdZbGh2z3dejiwtdXFzo4uJA28m3R1ne0luWpOYJXSQBAADQQ9CGqbq3+3XtPPpE2L3xg1p9UFVZ0tnjH+hZcmNt6K2LP9HG/TBAWv6ESrminCG2P9+fh89sSJLOTgYDx+x+qpYtqbyikTHbRJa1UpZkt/TT5FsAAAC4tQjaMFX3VpItVEXdC2a+H5Qydf/qo2/rS1lnchyi/JnB8W4AAADATUXQBgAAAABzjKANs9X5gZq2pPIHYzNCzhtHz64cRPaaSjMfbxaNmyvpteRbAAAAuLUI2jBlsXFjnR/oL9/+c53NcZfFu6VoopS0MXdx0XizxzqYVdTWOdDjmY+bAwAAwE1D0Iapam59Tl9Z+GzwWPnToJVt+/P6rXHXHTv8xmV60Xpt+3/ae+3R3iSTi0h3V4J1CM8e/qm+2fuc9HTvf2Zbkq3Ho6K2wx0tLCyEj3C9tv2t3msbe8P/tnPwWLak7c+MW1gAAAB4GRG0YXasD6m8+3n9XspC2HPj/h/o9w42hk+WEnf/C9q1JPvh1zT9ldQ6OnhsS9auvkDMBgAAgJhXnj59+ovki3GmGbREAKM82/uivvnwZyoffHv8VrWb4HBHC1v7snZP9OTB9DoxdvY2tPLQ1vbBhR69zOUHAACA3GhpA/K4/0gH25L98G2N6OmYT2dPbz+0pe0DAjYAAAAMIGgDcrr/6EDbsvVwZUeHkwZunUPtrDyUbe3qhIgNAAAAKQjagNzu69HFgbYtaeJpHpclWds6ePJg4qQAAADwcmJMGwAAAADMMVraAAAAAGCOEbQBAAAAwBwjaAMAAACAOUbQBgAAAABzjKANAAAAAOYYQRsAAAAAzDGCNgAAAACYYwRtAAAAADDHCNoAAAAAYI4RtAEAAADAHCNoAwAAAIA5RtAGAAAAAHOMoA0AAAAA5hhBGwAAAADMMYI2AAAAAJhjBG0AAAAAMMcI2gAAAABgjhG0AQAAAMAcI2gDAAAAgDlG0AYAAAAAc4ygDQAAAADmGEEbAAAAAMwxgjYAAAAAmGMEbQAAAAAwxwjaAAAAAGCOEbQBAAAAwBwjaAMAAACAOUbQdo38dl21Wk0NN/nOjLiN6/08AAAAAFM3cdDmt+uq1dvyw+duo9b3fFyzSndW/HZd9VpDtzo+8l21G0FgGjzqarTn9YgBAAAAN8PEQVvX86TFggqSJF9+V7Hn45tVurPS9Tx5yRdvE7+t+pGtphMvBU9O80g1mvoAAACAsU0YtAXBlGEshs+78qYSucwqXcxMoaBFw1TZqqharaparapimcF7zuntboEEAAAAJvDK06dPf5F8Mc40wxvvPq4aNVtO8uUk01J1rZh8dYQZpeu3VT9qatGqaum0LtvxJKOsymZRbuNYTceTYVra7EvTl9tuqdV0whY0Q4ZZ0vpa8bK1z22oZo/OrVGuaHM1bC9s13XU9GRaVZX8ho6jtA1T5fU1hZvF+HIbx2o5l614hmGqtL6mYtq27ZZajjMQ4JpWVWnF5Tbqsh3JtDZT358Gt1GT7RgqVzZT9g8AAADAVSZsabtZuq0wYJMkz1ErDNiCpy3Fh1+5jSPZvYBNkjx5jq2jicfVGeq26jqKp+05ah4lx8P5atePZMcCNknyPEf2Ub0vr0FwF+Y3c4ukq1PHC7owtibdJwAAAACzMmZLWyRoGVPUkhNr0Zqs5WbK6YZ/70UtX4VWr4UsaPW6bAFbK8Za0ExLlV7LWtDqZTux7WKCFiVTVnVNw7IYtbRJkmFaYatdGHA5/S1ivW2Nsqz11bBl7TIPfa2NUX77tpV8t6Ej20nNr/pa2ta1Nth0NwVhy6lRVmVzdW7HIwIAAADzbLKWNt9XV4Yuh5558uLPxzWrdI2y1uN99IyySkWpUOhP2D11JJmy4l0hVVBxrSRTknM64QitsCtmkHZBxaUgMO76UXuXL9fxgjxsXgZhQR7WVTbi48R8tVthfvu21ZVBUnFtU9Xq5owCNslt2HJkqLxOwAYAAACMa6ygLVpvrHbUlCdPzaNwinfbkXrPk134rjardCOGGQ/CBp8Hwpkq5cjuTV0fPcLxdl1/ou6E5lJKs1efcOIVcyml1a6gIMbsqhfjSZJhaNKYdpri4+UYywYAAACMb6ygDfNk3mbW9MOuop5Mq5LaLRMAAABAdmMFbYXVzWBK97IRdMsLp3i3zKDLYaVaVbWav4VlVunmE7Zk9T4v5TF0fFai9WtSqVPlRy2BiyoUgn8NQ5LnqZvYMujmeZ2iyVOi8XnppQQAAAAgu7GCtki3r4knCiYmN6t0s1o0DMlr6rjhZg7CFoPISY7rTtR1MlBUMMzNkd2IpxdMRNLs6zoZdZd01Ir6jfqu2vWarliNQG6jrlqtrumsfR0EbE3PGDrxCQAAAID8JgrapJSxVIuFIa1QOc0q3QwKq8FkH55j6ygaVxd7pAU50WQmXtPWUWzb+pgD8IprloK4LZ5esASAjGCSlN62pbIMSV7zKBwTaKvpSYZpyogn2me6U/777TCYlCfHHiyz2sRLJQAAAAC30wRBW7IFbFpjq2aVbh4FrW5WZJnGiKAnobimimUGXRWnoqi1iqWyGU/QkGFaqmwmlhUorGrTKl9+tmHItCraLI3KTFFLpiHJkFlKm5AFAAAAwDyYcJ02AAAAAMAsTdDSBgAAAACYNYI2AAAAAJhjBG0AAAAAMMcI2gAAAABgjhG0AQAAAMAcI2gDAAAAgDlG0AYAAAAAc4ygDZg5V416Q27y5dymlQ4AAABukpuzuLbbUM12ZFpVrRWTb+bnuw0dtxx53uVr00r7dnLVqNly4i+Zlqq3vkB9tetHanqmrMqaioXk+zn4rhpHthyZsqpruu0lCwAAcFtM3NLmt+uq1dvyw+duo9b3fB757bqO7P6A7WXgt+uq12iJmZVxytdtHKnpGSpPGrBJUqGotUpZhhzZjTy5AAAAwE02cdDW9TxpsaDgftSX31Xs+Tzy5TqeJENlq6Jqtdp73PRGoa7n6cXFoUWt9crS0py0z05V7vJ1G7IdySiva3VaJ0RhVetlQ3JsEbcBAADcDhMGbUGQZhiL4fPuDWi9CvNolrQ6cdMHMIyvdsuRjLLWpxaxBQqrJZmSnNZ8t2gDAABgOsYc05YyfinN2GOafLntllrOYBfGwXFn4bZNJ2wFMWSYJa2vFYe09oV5Hztvl9xGTbYzanxRymf5rtqtlhznstXGMEyV1vu7z/ntuo6aUrmyroIb2z/DVHl97bLlJhzrN4pRrmhz7MAhb/kqfb8HZEjXb6t+1NSiVdXSaV2240lGWZXNotzGsZqOJ8O0tNn3GRnSvY7yDf8u9b24jPUhKci/l3I+9HMbddmOZFqbI7cDAADA/JqwpW0WfLmNI9nNwYAtTW/b3iuePMfWUXxcnd9WvVZTrVZTLQo2HTt8Hj7GGIe3aBiSuvKH/aHvq6t4S6Sv9rGtZuwGXZI8z5F9lDZWypNznNg/z1EzddvZyFS+Y8iTbrcVBmwK9r8VBmzB05basT/Ik+4sy9c9dSQZMkdFXrnrw6VC0ZQhyTkdtZWrU8cL9pNWOQAAgBtr4Z133vmj5ItxhmEkX5K0qKVSSaWSIb91KsOq6s31kkrmq3I7Z7oXPV+KgpUc3L/Xd3/UlYyyrDc+qfXXSyqVSjINX53TrgyzpF6ybiPY1rRUeXNdr5dKKpVMGf4znZ45em6E2z5/pvc6ZzpPfFSfD9zTR5bv6k7y9RHunD9T6/RMd+6Fn+M2VPvuj/Wquay7dyQ96+jvTru6t/x6mOfnevbsue593NIn119XqZffjk67Xb0S5VfS82fvqXN2rvNzyTAtvfHmul5P23ZxKUynJMNv6bRryqq+qfXwtVKppOW7efYqJmv5DvDltk7VNcz0OpA13fC4eefnMsoVfXr5uVqnZ+p2z2VaVVm/4qpz5vWVf6Z0Z16+vt7/cUdnH3hNr39sVJ3KXh8G3Lmjf3Y7Ojv/FZlD6+2iXvFdnXY/IPN/K+nDi+lbAQAAYL5N1tLm++rK0OWQNk9e/Hlu4TggmbI2V/u6h6W1VwStGaasvq5vBRXXwjE/UStEYVWbyUkyTKtvEpLq5mrqZ4y0aMiQ1A2b2ny/G7RquPE2jXh5FLS6tpYYS1dQcSmtC2oo7P4X/MXlttFnzlLm8s0pd7rJcWFGWaWiVCj0V7Tc6WpW5RuOm7xyQp4x6kNPQYVFSZ6nbvKtmOLapqrVTa2NbPEDAADAPBsraPPb9aBL4VFTnjw1j8IuhrYj9Z7X+7qt5WIYujruC2eqlCM73s0x3gWy68+2S1ihEMtnMCulaZryHFd+L4hbVCF+v+y7atTD8oseI8ZMmUsvaiDSrMo3f7qG2T8eLfk8kD9dvdDyDeWsDwAAALh9xgraZucmzD4ZtyjDkDyvG+bd1FLJkOE5cv1wOYR4AOq3VT+y5dysncSsUB8AAACQwVhBW2F1U9VqVZWyEXRHC7sYWmbQda1Srapa3RxjbaogCErr8hV0fYsLu4f1Pi/lMU6Xx1zCPHR9+e6pHMPQYqEo04h1kYx1kXNbTXmSjLLVn2crS3e4rEZMjJLLrMr3pqWblKV8w3qc0rIXN1l9CFsWM7VKAwAA4CYbK2iLdPtaCKLuaZMIb7zlqBX1rfRdtes1pfUYWzQMyWvquOFmuJGejSAPntxTJ+y2V1DRNOQ5LZ0OKY/FwmIvePDdthqtlJ0bQzCbpSfHDbpnTmpW5XvT0o1kL99ovFnQ4nqVseqD78rJMG7ObdRVq9VZiBsAAOAGG3P2yIDvtnT6yr/Wx5fv6o6e69l7HZ0tLuv1oVPeXW3RCGag9M46arVaanVOdXYuGaapD3S7uhObPfLO3Xt61e3IOTtVp9MKto89/NTZ966Y2TCnYBbCM511Db32+sd09044q+Q/OOqeS8a//nhvdsFXfu6qc3au7mm4b62WOqdn6obTWsZnxoxmN+ybLVPBzXrrtKsP3PvIwKyFwWyWXZ2fnaoTKwf3VXNg2yxyla/bUO27x+F7p0FLafc0NQ+Z0w1nj1S0r8l9D59HZZQ53Wso38VXfLVOz3T+S4PvRfLUhyT///47/ejsXObH14duI7n68fE/qKtzdf1XR8wyCQAAgHk2QUtbsmVtSuPRCqvatMpB9zIF3b9Mq6LNUlrwWNDqZkWWGczi+CJczmAYm3CkuBTMUClpMTYLSWF1U5VysL5WwJBhWqpY5enkv7imimVelt3EZlW+Ny3dUJ7yLZZUNiSv2Rq63tr49SGY9CaaRXO4opZMQ5Ihs5Q2eQsAAABugleePn36i+SLcaaZZXwNgAFuQzXbkVGuaDP/AM+h/HZdR01PplXV2sigDQAAAC+DCVraAIxUXJNlSl7zePzlL5L8to6bnmRaBGwAAAC3BC1tt4arRrRe2ZVMWdU1ERNMQ1TupqzKWt+C8bn5rhpHthyjrMpUZsIEAADATUBLGzBTRa1VLZmGNHGUVZBkmLII2AAAAG4VWtoAAAAAYI7R0gYAAAAAc4ygDQAAAADmGEEbAAAAAMwxgjYAAAAAmGNMRDKhm7rQcZTvS4bKlU0NrAHtt1U/aiq+pUxL1Zu0swAAAMANNnFLm9+uq1ZvK1o72G3U+p4DAAAAAMY3cdDW9TxpsRCuG+XL7yr2HPPNlFWtqlqtqlpNaWWTpMKqNnvbWKLdFQAAALheEwZtQZBmGIvh8668vn50AAAAAIBJjBm0uWrUaqrVjtT0JK95pFqtplrNliNJjh08b7jJP3xJGTIWJb/dUL1WC/a93lCbPqIAAAAAJjRm0IYk57iuo6ZzOWGH56h5VCdwAwAAADCRCWePdNWo2VI0c2I40+DiDZtJcRLxWRgN09L6WlEF+XLbx7KbnoxyRZupg8VGcxs12U7y1RijrMrm6thjB4N8L8qqrin7oQqOt8PskQAAAMC1maylzffVDbsGSpK6nrz481vEKFe0uVYMg6iCiqslmZI8x2UmTQAAAABjG6ulbXCNrzRD1v16yQxfp81Xu36kpiZrEZsVWtoAAACAm2GyljYAAAAAwEyN1dIWSbbWuI2a7O58tizNytCWtnB8nzdmqxRj2gAAAABo0pa2bt+ibOHC2rdWbOSa76p93JQnyVwiuAEAAAAwvola2vpb1sIxXIu3qxVm5Pi+OW6RoqUNAAAAuBkmaGlLtqx11dfwdksUiiWVTUOGEXvRMGSWKwQ2AAAAACY2UUsbbi5a2gAAAICbYYKWNgAAAADArNHSdksNjsUbsq5eNAtm/DVa2gAAAIBrQ0sbAAAAAMwxWtoAAAAAYI7R0gYAAAAAc4ygDQAAAADmGEEbAAAAAMwxgrZbzG/XVavVVG+4ybcmMqt0AQAAgNuIoG3KfLeher2mWu3yMZ+xiy/XCSby95xTTS+Ls0oXAAAAuJ0mDtr8dl21elt++Nxt1Pqe3yZ+u64j25HXt6jZvCqoaBqSJMNc0vRWXZtVugAAAMDtNPGU/26jJlvRYsu+2vUjNRdv4+LL4b57hsrWulaLyVWqAQAAACC/CVvafPldyTAWw+fdG9LKNAvhvpslAjYAAAAAUzNmS5urRs2Wk3w5ybxNLW5hmVy5z77cxrFajqcovjUMU6X1NfXHekF63XJFm6tSu3GsZjhWzDDLWl9b1XihYcqxuzLPWWRP12/XddSUypV1FdyWWk0nKAvDVHl9Tavj7VjAd9VuteRcWb6X3EZdtiOZ1qZSsgsAAAC8UBO2tN1yflv13oQjYcDi2H2TkPSP7wu6UNqxgEKSPM+RfVRXO20goOeqUTvqBWyS5DlNHc3n7CY5eHKOj2RHAZskeY6aR40JJi/x1T621Uwt32Hpujp1vCA/rds5FhMAAADzbeGdd975o+SLcYYRTCrRb1FLpZJKJUN+61SGVdWb6yWVzFflds50L3q+FHWbfEk9f6b3Omc6T74e94F7+sjyXd2R5Lf/RrZzLhllWW98Uuuvl1QqmTL8Zzrtejp7bsTKzJfbOtVZ90xdGSpbb+iT66+rZBryO6fqdl+RUVpS/hKOjt3l8esa5hSOVfZ0nz97T52zc52fS4Zp6Y031/V6yZThd3Ta7eoVo6SUP8vguZ49e657H7eCsipF5Tsq3UW94rs67X5A5v9W0ocX7yQ3AAAAAF6oyVrafF9dGboc0ubJiz9/2RVWtVmtqlqtqlq1ZCrsEth7rarqZtSNMZoK35S1uRrrqldQcW1dZUNS6hT5pqzq5uU4uUJRS2k9Vm8i09LmWjEsn4KK4Y51/XHbuwpaXVtLjCm8THeY4tqmqtVNrQ3rPwkAAAC8QGMFbdHiybWjpjx5ah6FXQFtR+o9H9Ld79aKJipJmwa/oMJisM1AvJKyfXGtqmp1beD1m8ZcmsEe+K4a9bB+Rg/7ytGXAAAAwNwaK2gD5pLfVv3IlnN7pzAFAADAS2isoK2wuqlqtapK2Qi77wVdAS1TklFWpVpVtbo52SyAL6vULpDB0gnSogqU2djcVlOeJKNshXUwfFiju0cCAAAA82ysoC3S7WvRiAIPpIvGojmyG27fjJJu41jNoV0nkddiYbG3HILvttVoje4e6TbqqtXquvETcgIAAOClNFHQJkkyjP4ZDBcLY64f9vIrroWTlTi2jnpjroIlAGSYsq5jkTC3ERvvNbhMQX3cgYizSjeHxXCmU8c+6n3ukd1UbLWEFEz5DwAAgPk2QdCWbFkLJ9rACEWtVSyVzfgyCoYM01Jl8+ZPLPKiFVY3VSmbuizdsGytcuy1pKKWTEOSIbMUzWQJAAAAzI9Xnj59+ovki3GmyXggAAAAAHhRJmhpAwAAAADMGkEbAAAAAMwxgjYAAAAAmGMEbQAAAAAwxwjaAAAAAGCOEbQBAAAAwBwjaAMAAACAOUbQdov57bpqtZrqDTf51rWZhzwAAAAA84yg7dby5TqeJMlzTpUlZPLdhur1mmq1y8dksVb+PAAAAAC3zcRBm9+uq1Zvyw+fu41a33PMq4KKpiFJMswlFZNvJ/jtuo5sR14QY01JvjzcDK4asaC278F5AQAAgDG88vTp018kX4wzTTP5Uh+3UZMtS9W1oiRf7fqRmovRc7wcwuPqGSpb61otFpIboMdVo2bLSb4sSUZZlc1VUXoAAADIY8KWNl9+VzKMxfB5d8otMZgP4XE1SzcwYPPlNupqtK+3jcsoV1StVvsfBGwAAAAYw5gtbSNaE+JMWtzmT8qxu/I4hX9z5XZZjZOHcUQthEEQtbl6HSFTsG/dnJ/nNuqyHcm0NjX1YgAAAMCNNmFLG15aflv13nisMMBy7JszRst31Qi7dJpWvgDq+rk6dTxJnpzWHJcpAAAAXogxW9oiQauCrGrQOuC3VT9qajF6jjk3ogUtPJYje7tOZYzWiDyMq5d3Q+XKptLiNbdRkz2qqXjsfUtpRTQMmWZJpdXi0PQuW9rWtXbjuqACAABgliZrafN9dWXockibJy/+HDdXYVWbvfFYlkyFXRjnfIyW366rdtSUZ5RVqaYHbNfO8+Q0bR2NaJksrm2qWt0kYAMAAMCAsVra/HZdR82RbTDSiFYOzIusrVxZtxvH9NL23YaObEcyTFmba3OzhIDvt9U6asoJJyiZ766aAAAAmDeTtbQBc6RQXFOlbEieI7vemJvFuguFVa1Zgz9+AAAAAFmM1dIWCVrcFmVVg1YNt1GT3R13LBCuX9ZWrqzbjWMGab/QMW3potZpWtoAAACQ10Qtbd2+RdmCNduAF66wqs2KJdPw1Dyqq+EOG0l2HXz5bkPHTU+SIXPImDW3UVetVldjXpoHAQAAMDcmamnrb1kL18RanGKLCabPbag2ookpvSVoyq1hY+VhHC9gnbah+2aMWIMtNuPklFv4AAAAcPNN0NKWbFnrqq/hDXjhClrdrMgyDb24CU0NGWZZVmVYwCZJRS2ZRhDYlYYvCwAAAIDbaaKWNgAAAADAbE3Q0gYAAAAAmDWCNgAAAACYYwRtAAAAADDHCNoAAAAAYI4RtAEAAADAHCNoAwAAAIA5RtAGAAAAAHOMoA1AgqtGvSE3+XKM366rVqup3hi11dXpAAAA4GoEbZhrUXAwMjZANm4jQ1n6atdtOZ4kP/lexJfreJIkzzkdHpT5kjxHdo3ADQAAYBITB21+u65avd27v3Mbtb7nAG4Ot3GkpmeoXFlTsZB8N1JQ0TQkSYa5pGLy7UihqLVKWYYc2aMjRQAAAIwwcdDW9TxpsaDg/s6X31XsOYAbw23IdiSjvK7VK07gwuqmqtWqNteGhmyBwqrWy4bk2Fe08AEAAGCYCYO2IEgzjMXweVde0GsKwI3iq91yJKOs9asitpwKqyWZkpwWLfAAAADjeOXp06e/SL4YZ5pm8qVggoGaLSf5cpJpqXrVL/HACH67rqOmVK5squg2dNx05EmSYaq8vnZli9BIvqt2qyXH8YI0JRmGqdJ6f9fAPHnIs234F3LbLbWi7WTIMEtaXyv2tVZfpruughvb/qp0HWfghxTTqmrgtHQbqtmOjHJFm4OJhVLO+4zneJB/L/2zAQAAMNKELW3A9XCO6zrqBTbBBBfNo7raYzfd+Gof22rGAjZJ8jxH9lH6xBnOcS1zHrJu6zaOZMe3kyfPsXWUOi7Uk3Oc2N5z1BzIr3+ZbsaWb/fUkWTIHD6QbSKFoilDknOaVrIAAAAYZeGdd975o+SLcYYRTDjQb1FLpZJKJUN+61SGVdWb6yWVzFflds50L3q+FHWbBMbz/Nl76px5Oj8/l2FaeuPNdb1eMmW8+kynZ57Of8nU8t07yT/L4LmePXuuex+39Mn111UqlVQqmTL8jk67Xb1ilBRV38s86Mo85NlWbkPf/VFXMi1V3lzX6708PNPpmaPnA3k4H0w3Jb9y/z5I1yjLeuOTWn+9pFKpJNPw1TntyjBj20qSfL3/447OPvCaXv/YXQ0vzei8vzz3u4aZ7Ty/c0f/7HZ0dv4rMpdHfQYAAACSJmtp8311ZehySJsnL/4cmBKjXNFmr8tgQcVwnJTnuCktUlkUtLq2ptW+lqWCiktp3YEDefKQZdugdcuU1dcVsqDiWjgGLK1VyrT60w3z2/WjVMOxaTJlba72dfMc3oYWjkWd6QRCBRUWJXmeusm3AAAAMNJYQVu0dlbtqClPnppHteC57Ui954NdwYBxLRaS4cSiUhuB8/BdNephXY4e9vCRmnnycPW24UyrcmTHP79WUy0aN9b1B4JBcynjgDDDEL+dAAAAvBzGCtqAG89vq35ky8k66OvGYAZXAACAl81YQVu0RlOlbATdsKpVVatVWaYko6xKtapqdTNlRjtgSnxXzgRd+txWU54ko2yF9TV8WMO7Rw7Ik4eBbcPugr3zJeWxuXp1ugPCFr2UbohBd8w04d+ktOxNT9iySAsgAABAbmMFbZFu30/6UXcvYBZi4YTvqn0cBF3p3QV9tRtBt8f6FSs6LxYWe4GR77bVaA0LbDSQh8YVebj8b/q2i4YheU0dN1z1hqRNLAwG5agV9U/2XbXrNQ3v+RmNN3PkTi0fCQNBKwAAALIac522gNuoye6WVdlcVUG+2vUjNRezrdsEZBGt75Vq2Bphflv1oyBIClqC15TcamS6ibXMRm6byEOebRWdM0M3H8zDwDpnaeur9e3/JcM0JcfRYjINDUknKdxmmFF/OzT/AAAAuNIELW3JljXG0mD6CsWSyqbRP4mHYcgsV9IDNkkqFGWawR8Y5tJAwKawi2+lHKwdFjBkmJYqVjn22giGIbNsqTIsD3FDty1odbMiyzSyfWZWhVVtWuXLMjMMmVZFm6URn1IsqWxIXrOVukbdZHy5jicZZZWSRQAAAIArTdTSBtwGeVqJ8mw7d7K0to3hRpcJAADAHJigpQ3AS6W4JsuUvObx9Jbr8Ns6bnqSaRGwAQAAjImgDUBPcc2SKU/No8bkk5L4rhpHTXlGOaVrKAAAALIiaAMQU9Ra1ZJpSBNP81iQZJiyxlq6AAAAABHGtAEAAADAHKOlDQAAAADmGEEbAAAAAMwxgjYAAAAAmGMEbQAAAAAwxwjacO38dl21Wk0NN/kOAAAAgKSJgza/XVet3la0pJPbqPU9x2T8dl31WkPENwAAAMDtNHHQ1vU8abEQrsPky+8q9hyT6nqevOSLAAAAAG6NCYO2IEgzjMXweVceEQYAAAAATM2Yi2u7atRsOcmXk0xL1bVi8tWXTFAW3XJFm6tSu3GsphNEroZZ1vraaqLV0ZfbbqnVdMIWNEOGWdL6WvFyO7ehmj26dI1yRZurYftmu66jpifTqqqvuMN04tvmyW+QrlSurKvgxvJsmCqvr6mXZE6X6W6q6DZ0PKV0AQAAgJfRhC1t6PFcNWpHvQBIkjynqaPEbBtu40h2L2CTJE+eY+vouscBZsyv5Mk5TuTZc9Q8mnycnXNc19FAunW1r7UgAAAAgPm28M477/xR8sU4wzCSL0la1FKppFLJkN86lWFV9eZ6SSXzVbmdM92Lni9F3SZfZr7c1qnOumfqylDZekOfXH9dJdOQ3zlVt/uKjNKSFhW0fH33R13JtFR5c12vl0oqlUwZ/jOdnjl6bpS0tChpcUmlUkmlUkmG39Jp15RVfVPr4WulUknLd+/0cvD82XvqnJ3LMMO/72XNVeu0qw/c+0hs++z5jdI9P5cM09Ibb67r9ZIpw+/otNvVK1F+cwrS9XR+ft6f7qvPdHrm6fyXzL79AwAAAG6zyVrafF9dGboc0ubJiz+/VUxZ1U2tFsO+fYWilhI9S91TJ9gu3hVSBRXXSjIlOaeTtl3lcXV+e0xLm708F1QMN+z6kzWJGeVKf7qrQTl4jnu9rY4AAADAHBsraIvW2aodNeXJU/OoFjy3Han3/JZ1czOXlBy9V1yrqlpdC18PZ9aUI7sWllfvEY4P7PrXF6xcmd9L5lLylelYLCQHry0qtWEXAAAAuMXGCtoAAAAAANdjrKCtsLqparWqStkIu9lVVa1WZZmSjLIq1aqq1U1mAexTUGExXj4pj83kTJORrsbpieiedpMvzTffleOxzh8AAAAQN1bQFun2LcoWdf/DMIuGIXlNHTfczEHYomEEMzi6w8d5FQrBIELnNJqB0pfbqMuOzQw5n2J75LtqHzflzbA7JgAAAHATTRS0SZIMI5gZMUIryVCF1XWVDQVT/EfjAGOPgdn2YwGZ17R1FNu2Hh8wWFySKUlOM9zmKAjY5nyAmGMfXe7/ka2mF0x68tIv7QcAAADkMEHQlmxZ66qv4Q0pClrdrMgyDWUOp4prqljmFfFXUWuVsszeNobMsqXKZjAb47wpFEsqm0b/PhmGzHLlFizGDgAAAOTzytOnT3+RfDHONOfxth8AAAAAbocJWtoAAAAAALNG0AYAAAAAc4ygDQAAAADmGEEbAAAAAMwxgjYAAAAAmGMEbQAAAAAwxwjaAAAAAGCOEbQBAAAAwBwjaAMAAACAOUbQBgAAAABzjKANAAAAAOYYQRsAAAAAzDGCNgAAAACYYwRtAAAAADDHCNoAAAAAYI4RtAEAAADAHCNoAwAAAIA5RtAGAAAAAHOMoA0AAAAA5hhBGwAAAADMMYI2AAAAAJhjBG0AAAAAMMcI2gAAAABgjhG0AQAAAMAcI2gDAAAAgDlG0AYAAAAAc4ygDQAAAADmGEEbAAAAAMwxgjYAAAAAmGMEbQAAAAAwxwjagBvLVaPekJt8ObdppZPOb9dVq9VUb8zqE6brpuUX+XGMMS7qDnDz3dTzeOGdd975o+SLcYZhJF966fntuv7q+38n3yhpaTH57s127fvmNlT77vH1fd6t4atd/77+wTNkmktavJN8Pwffl/ujH+lHLV9GaUnTPUy+/u+/+5HOzqXz7iszSH/ablp+bwpXjdp3ddxqqRU9fEOlF3JRuN3H+Nq/A14qN6PuzMcxnqdzfrrmo3z7+W5Df9M41t/93WV5zzp/81EO49Szm3Eep5m4pc1v11Wrt+WHz91Gre95XlH02/+oq95oyx030Ri/XVe9NrtWhRfpZd63l5cvt1FXPVbfs9R1t3GkpmeoXFlTsZB8N6dCUWuVsgw5sqf+q1NBRTP44ccwl1RMvn0N8p0XLz6/mLXsxzhf3cHLL3vdmRXq5GzdxPL123Ud2Y48L/nO+G5iOWQ3m/P4Osps4qCt63nSYkHBfaMvv6vY82nx5DlN2UeTF0bX8zTFej1XXuZ9ezn5atePZDv9x+3Kuu42ZDuSUV7X6rROtMKq1suG5NiadtxWWN1UtVrV5tq0Lo355D0vXnR+X05FrVWrqlarqlYtmcm3r1nWY5y37uDll7XuzMrNqZPzdc5ndXPKN+LLdTxJhspWJSzv4DFJFb055TBePZvFeXwdZTZh0BYEaYYRNSx2pxbpm9ZlxatWKyqbkuTodMo3lMCL4reP1fQkGWVZlcu6boV1Pb3Vy1e75UhGWetTi9gChdWSTElOa/yWcgAAcF3C+26zpNWJu91g3r3y9OnTXyRfjDPNtLjVVaNmy0m+nGRaquaMYv12XUdNT6aV+JXAbahmO4Ovy5fbOFYr1lphGKZK67FuY+HfjmKUK9oMb4LjeSj5DR03nSBtw1R5fW281g2/rfpRU4tWVUunddmOJxllVTaLchvHajqeDNNKRP2+3HZLrejzZcgwS1pfK162ZM583zKUb0+YX2ewmT71uPXtm2SYZZVKqynp5uC7ardacq7Mb1CHu+WKNleldngMFOZjfW010VqczG/KscglOodMWdW1RPN80ALX9FLeC493/JgmBcdYKlfWVXBjeR56jC8NPf9yS7lGDLkeTJLfoXKeF5nzO6vzeFxhfY/qrmTILK9rbaDQMpzHOfft8rhtquhmuZZEwrJOK9+eLGUWnScp15dwXzyjrMpmdC5nPMZ56k7q51xyGzXZjqFyZXNEeUwm+IyUa0VPf3mP9R1w5bHQHFxTZ3QtkbLXnZ7kvk34/ZanTiau49M9xuOa1jk/zjEOrn127xoZF56b3VmXbx4ZrtV9spRtRi99PZvBeZyzzCY1YUvbNfHdoHVBppb6ynZI9zLPkX1UV3ui5gJD3VZdR7GDJc9Rc1S3tQy6rfBmSEF6rdgXm+e0+vLsNo5kxz9fnjzH1tEEYwYDWfctT/n6l/lNuzYmDO5b2C2wNUnp+mof22qm5je5byHPVaN2FLvpDfJxlGjlGszvhMfCPZUjySiXUm60ov7Wgy3L7qkjyZCZfvWO8eQcJ/Kceoz7FYqmDElO8oNnbrz8vihzcR77bdWPgvp+yZPTPB44N7Ofx/n2TZKc41rKtWQw3TyylVlBq5tBdxjHjtcTX+3jpjwZKq8nA4UpKxRlGsE+D45DdXXqhL+AzzATi4YhqSt/4PNDvq+u4j1ilOM7IOuxiHlR19SeF38tGdy3aXy/5TXDYzwD+fKQ9RhfXvumL3v5ZpfxWu23Y+PgwyDEsfvngkgtt1nIXg75jvGLN5jfF3Ee9xtz9shFLZVKKpUM+a1TGVZVb66XVDJflds5073o+cjZW9I9f/aeOmfn6p7GZoLpnOrsA2VZb/xbFWOz5Pntv5HtnAfdy974pNZfL6lUMmX4z3Ta9XT2PJxBZnFJpVJJpVJJht/SadeUVX1T6+FrpVJJy3cvEw7y4On8/FyGaemNN9f1esmU4Xd02u3qlXFmynn+TO91zuSdn8soV/Tp5edqnZ6p2z2XaVVl/YqrzpmnO/fCtN2GvvujrmRaqry5rtdLsX07c/Q8ysMM9y1z+UqS+/dBfvu2Lck0fHVOuzLMeJm5+vHxqbpmWZU3PxnuW0mm8aqev3JHS3fzFm7kuZ49e657H7f0yfXXw/1P3zfJl9s61Vn3TF0ZKltvBH9jGvI7p+rGZxTKeizy8F21Tru6t/x66t/eOX+m1kC5+Xr/xx2dfeA1vf6xuxo2YWR0Dp2f68pjPODOHf2z29HZ+a/IXB7+GVeLrhGX14muYaZeEybK7zA5z4vM+Z3VeZybr/bf2HL6yixM+9Wuni8uKdq9zOdxzn27vJYkjturz3R65un8l8xEGUeCcy+1fJW3zBa1ZPhqnTo6DWcMi/bXtD6tf3s3nnDGY5yr7tzR3Q/4ap2eDe6v+2Mdn3Zlfnx9zGOcTXCtOOurc7Xv/livmstBHXjW0d/FrjV5vgPyHYsXfE2d1bVEyl53pNl8v+Wqk7M8xuOa3jmf6xi7f6/v/0NwX1L5dHgsovooU1b1k/rwnRmXbw55r9XnyQTiPnBPH8n7HT7LcshxjMd3RT2bxXmcs8wmNVlLm++rK0OXQ9o8efHn0+Q1ZR/Ho/Fo8KUpazPe5aCg4tq6ykFzwUCkn0vYFShIuqDiUtBVtDv0J80MkmORjLJKRalQ6C+0oEXFlNXXbFxQcS0cdzRpS8iV+5anfMNxVgPbavSv3I4jN/bzdKG4qrXVwXan7ApaXVtL9Ou+3Ld0pqzq5uXfFIpKbj6LY+H73eRLqfrrWth3PetEP1ce4zQFFRYleZ6y5XCKxsrvC/Kiz2PfVXB6xstMQdqr8W4pec7jUMZ9ixjlSv9xC8dGeo471q+nucusuBaMA3VsNdptHQf9JSfs3ptDcSl1f93TYOxpadb5WDRkxM6T4Nriyelr+kv5Xs5wvuU+FtILu6b2ybBvMzf177cxZCiHmR+LDMbKQ4Z9i75nzVKsxb1QVKl8Ret0VhnykF2Oa3VhVZvJyTdMq28SkmpKd+2ZyVAOYx3jeTAP53HMWEGbH03Lf9SUJ0/No7A51nak3vPJusf0TURSqahsGpLX1HEv0WjwZdp0neGN54QnpdnfF3MqDDNeYQefB8JZOOXIHlj+IGwK7/pj3RBFrt63McrXMDKudVHUmmXKkKemfaRara5G++pp7jPxXTXqiWUjRvU3Ttm/4lpV1d74kNkci2E3wEmLhcHakdXVx3i+3KT8Js/b5PPAbOqOpPAHsixllv88Tu5L8nnSYB1dVGoHjUzGK7PiWkVlQ3KaTXnhjcH1CW8C410k/bZaztVlNxWFQuy6G9z4mabZCyKDG9dFJQ/T1XVnvGORVteu45oad/W+zdIMv99yurocZn8srjZeHq7et8vvWec09oO/76rV9FLPibyy5CG7/NfqeXF1OYx3jF+s+TmP48YK2q5doaDVMBpP/pqJeTDGrKHFNW1WK6pYZZmGJ6fZlH004er04RgfJ3dmXpxhv8hlbYnD7UT9SBrjGjRFwVjQy9Yt33XkyVRploPZeoIg2fO6YTmYWioZMsIgsut5OX5Qw1TM4vsN+RVLYQtVU0dRkHAUBgmpwREQM4fn8VhBW7S+QaVsKOgKEbSIWWbQlaZSrapand1sWX2SXXukWFQ/7JeU+fy14lL4q0qvLFMeQ5u+p7xvmco3/GU9pUtd0CQ+TCFoat4MproPfqwenOggK7fVlCfJKFv95RbMoT+mSY7FCGGXpvQfIaJfApMT74TlPNNfpMJj+9Ld5E35vMhkRnUn9gvysKB/QKbzeEqirptZu/H2Ga/M3IYtR4bKVrhI/FQHtmeoO+GEJMH5HHZzurabwrDMur5891SOYWixUAxuMqKfha/xWFxtVunOm+l+v/XLUCczmYdjMcM8uC01veTcDIbMcmXEjIGaYvmO4Tqv1VeaVjnM8BjPXN7zeFpllm6soC3S7ftpM6pUs+DLbbSC2fZ63U2ifvLBelaXZRRMlxrc8w5+aQYzbXly3LSb5fmxaITdQRtu5gow3X3LU75R072jVlSTfVftek2pPRP9thqNtty+HYtmTPTkTViPFguLvZPfd9tqtNIykd04x+JKhVWVzGCs5lG8fH1X7XrwS+DgzJLReLO0meqmZKIb7vk03fMin5nUHcXGUTWPVG8nzs92I/aFkuc8Hldsx3xXjePgx5Oru8yky1tmfrt+udh8MVwkvq8r/fiy152CVkum5DXVartyPEPlmQ9muxSUmSf31Am/I4Prqee0dDrB9TTvschqVunOhVl/v2Wuk9nMw7GYVR6icVSl9XVVemuhbqYsiXJp2uWb3XVcq7ObdjnM6hjPzBjncb4y89VuBEN58rTcjblOW8Bt1GR3o/VpwjVzFketeXC1aN2HVIYpazO+Fk3KmguRgW1DQ9ZUGLb2RN+uZFgja6hwPR9Ff5tMa2Aduss1iNIM5E2z2Lcc5RutV9S/lQzTlBxHi/HPG7JtYNR6Q6ONrDsDZXbVeh5xYxyLLEaVw5B1n9KPU798x7jf0L/Na0hdjIxfJ8cwJC996Q7ZJtLb9jrO46yG5jm5LljG8zjnvo0835Ln1dC8BvqPcY4yS10nbcj6bbnyEBryN6nbxst52Pk7I5fHInbsY3kf/3zLcSzm4Jqab99yGFIPIn3pjrquT/D91jMkL9dzjHMYks/IuHnIs2+jrlFD1z4bku+0dLPkIZ+M1+o+ec67HKZeDtmPcS5D8hnpy0Oebcc5j4ekn1of+tIfkl6KCVraki1rMxxTYBgyy5YqAxW2qLWKFUxS0mPIMNO2DRXXVLHMCQbKX5eCVjcrssygG10mU9+3HOVbWNWmVb78bMOQaVW0WUrJTGFV6wP5DNPNWHHTFFY3VSkH64wFwjStcvYyTDXGsciisKrNlPIN6vqQG76wj77XbKV0oZhU2K3rOma8u05TPy/ymFHdUbRfZZl9OxYsrt3//ZDjPJ5UdK0e69s3krXMXDWO0tZjK2h1PTjn+9dvG0OuunM5S+K1TEASczmxUaz7VNgaK6VNFpNV1mOR16zSnQMz+n7ryVUns5iHYzGbPBTCmWwVXJr6DF2/derlm8c1XquvMvVymM0xnplxzuM8ZVYoygyPs5GjBXWiljYAL0Dqr1iTG/qrGZCC+jLIbdRkO9l/NQUwK1HLjimrkmxR89VuHKnpTNDCA7wAE7S0AXghwnWpvObxiMGwOfkvYH0r4KXhy21EY+uSY1EBXL/L3l/Jqbt8vysv6Mc8uH4hMMdoaQNupKjve9qviDn5rhpHtpxrHoeDm42WtpQxDJxDwJwYPYZKGjLWCJhjtLQBN1JRa1VLpiFNfIdYUDjImZtNYDzRuBPOIWA+xMZQJcYYGYapskXAhpuHljYAAAAAmGO0tAEAAADAHCNoAwAAAIA5RtAGAAAAAHOMoA2Z+O26arWa6o2BpShxC82qPswq3fniqlFPWdR1YtNKd1rp4Pah7gDArBC0pYhuHK/tvtFtXO/n5ebLdYJ5cz3nlC/kG8Z3G6rXa6rVLh/D6lq2bWdVH2aV7jzx1a7bcjwpsXTQhKaYri/Jc2TXuPlGTtQdAJiZiYM2v11Xrd7u3Se4jVrf83x8tcMbxoEbxTCwqU34ZeC366pPmMb8ChZ4rdcmOQZpCiqawZy5hrnEwrE3iN+u68h2eouMjpJ921nVh1mlm92srw9u40hNz1B56Np6sXM4fNQbbblXnMxXp6vs14dCUWuVsgw5sgcuxPNp1scNGd3AugMAN8XEQVvX86TFQrg2jS+/q9jzvC5XsHdO+y/47mlsAdMJdD1PV96T3jR+cDNWqx3Jdmazf4XVTVWrVW3e2lV0b6Ko5cpQ2aqoWq32HoOHMc+2s6sPs0o3q5leH9yGbEcyyutKXx4oWAw2eQ57TlP20YiA5Kp0x7k+FFa1XjYkxx78AW0OzfS4IZ8bVncA4KaYMGgLgjTDWAyfXwZdkzBNU+rrHuXq1DFkhr/Co5/bCm7GghvuslhZD4HwfDRLWh3e/BLKsy3y89VuOZJR1npqZCX57WM1PUlGWVYlCporskxJQ1surk533OtDYbUkU5LTGtEqB6Sg7gDA9I25uLarRs3WlW1fpqVqrl/Mg3RlWZJtS1b4K7/bUK1lyDId2c1FWdW1WNcpX267pVbTCX9pNWSYJa2vFS9b+9yGavbo3BrlijbDmx6/XddR05NpVVXyGzqO0jZMldfXUn7N9uU2jtWK/YptGKZK62ldlcL8OoPd0Mxof/Ny26qfFsJ9Do+NUVZlc3XMFs9IynEeeUyTx0IyzLJKpdWUcsgjW7rBcZPKlU0V3QzHzXfVbrXkZDpul9s3w3FXkiGzvK61wYSvrpNjyZtuePxGHrNIlm3z1oesZZY33WzlcFkf1lVwY9sn60PO68NYws8Ynk5UBmbi+qYgMKsfqemlvHdlupNdH+LXwqGHI7Msxy3a15Trod9W/agpL8p77uMW7Hu3XNHmqtRuHPfqpWGWtb6WKI+814fMkuXwcl7Pplt3AAATtrRNme+rK0kqasm87CLpnjoyzKKKhUVJXfmxn+7cxpHs2Jef5MlzbB2NGrORiaFuq66jeNqeo+ZAN6UhXZo8R/ZRXe2+TPiX+Y1vPKniqjav+AK9DoPHIuza1UprIcgub7rOcS3luA0ei/axrWbqcUse4+iGMdj+kieneZxINy2/06mTmdL127HxUGEg5Nh9E4v0xjPl2XYcOcosj0zlEHvPOU5sn3oez1bQvduQmXr3LMk9lSPJKJdSxvJFY/0cJXqNX52uJrs+FIqmjJTu6uPIdtwKWt20glYaO36MfLWPm/JkqLx+dbA5kueqUTvqq5ee09RRX0tmzutDDoPl8HJez6ZZdwAA0sI777zzR8kX4wwjrUviopZKJZVKhvzWqQyrqjfXSyqZr8rtnOle9Hwp6jaZ0fNneq9zpjtmSR9b9NU6fUXm8rk6x77uvf4x3T131To9172PLOvuneBX5u/+qCuZlipvruv1UkmlkinDf6bTM0fPjZKWFiUtLqlUKqlUKsnwWzrtmrKqb2o9fK1UKmn57p1YNt5T58zT+fm5DNPSG2+u6/WSKcPv6LTb1StRupL89t/Ids6DLk1vfFLrr8fy0PV09ty4LAf374P89m1bkmn46px2ZZiX6Y7Pl9s6VfcD9/SR5bu63KtxRMf58lh3DXPIcXX14+NTdc2yKm9+MjwWJZnGq3r+yh0t3U37myyyp3t53NR/3F59ptMzT+e/ZMaO83M9e/Zc9z5u6ZPrr4f7mH6MJV/tv7Hl9KUbbv9qV88Xl4L6qBx1Mq+s6Ybn0Hny7+OiupFnWylnfchRZnnSzVoOvfpwPlgfksc45/UhP1/v/7ijsw+8ptc/NuSc9F21Tru6t/x6av24c/5MrYFrRIZ0B+S8Pty5o392Ozo7/xWZWbYfJsdxkxa1ZPhqnTo69YPrZ3SdNa1P69/ejTbLe9yCfT/rnqkrQ2XrjeDcNw35nVN1u6/IKC0pyEae60Met+h6Nq26AwCQJm5p8311ZehySJsnL/58EsUlmZ4jt30qxzBTu3cEvzKbsvp+RS6ouBb2p5/0Fz7Tiv1CXVBxKegq2u019UWTN5iyNuNdWwoqrq2rHPzMGP7KGY49GdhWk/1qPG8cR25sqrtCcVVrq4NtB7nlSNcoV/qPWzi+wnPc/l/019YS47cuj3Ef3w2mUu+rDwrT7u+mlLdORstLJB/1xM/dmdMtrGqzN4lI0GIh0+qbWKQadYvLs21eOcosj8zlEHfleTxr4XjBERM0+X7Qx+Aq/Xm+Ot3JFVRYlOR5YS+I8eQ+bsW1YCyfY6vRbus46C85pW52pqzq5uW5Xwh6dvTLcX0Yx0t6Pes3nboDAAiMFbT1bjSPmvLkqXkU3mzajtR7nuy+kVdRS6anZjPoGnn5heHJ60qKZqqUI3vgpjfs6tX1R3bfuIq5lP4leimavCFtevLwCyvRnVOGEf6S+7Ipas0yZchT0z5SrVZXo331VOVXy5/uYiF5C7uo1AZj31Wjngia0sbIdIMuR1fXh1nVyVmlO0OZyyyP8cphunmYjUJwsbjSYN2+CcY7bsW1isqG5DSb8sLAYSpSrtfFtaqqyfGCWa8PuXA9AwCMZ6ygbWYSLXXBr4RXjNe4MaYzs+ZcK65ps1pRxSrLNDw5zabso5rqqbPe5TCLdMMxHU6Gg5K1FWQc0RT3ycfQSSVuiFmW2ctsWOvf7SzPF3jNzHF9yO0lvp4BAGZnrKAtutGslI2wq0lwo2mZkoyyKtWqqtXNsbtA9RTXRqQTtmT1Pi/lMbRrV6L1a1J9yxNEol8pFxX8UBr+OprSVWRaa9DNh0LQ1Wezqmo1+KXcc1oTtrpqsnSj7kCxbmRuqylPklG2+utPML96n6gVZNgN9aVJ6uQos0p3drKXWR7XVQ5Tvj5E5/6oVolFQ8ZAl7eIq1bTk2Sqv3EkQ7oTC69jE/UQGO+4uQ1bTrhMgSFH9hUTX0zzuOW5PoznNlzPplF3AACRsYK2SLfvV70oSLk+i4YheU0dN9zMX9aLQeQkx027OcorGgsRrKF0mV6wBEBwnxV1xYm6SzpqRd/Mvqt2vaa0Hiw3jt9Wo9GW23cgolnvoi6tYxgr3di2vqvGcXBDk9YdaLGw2Lvp8N22Gq2Ug1FcCsaQNI9UbyeOc7vRd6M1Tp3MYlbpzkyOMstj1uUw3etDJBrb4wzvBldYVSkoMB3FryW+q3Y96Io2OLNkhnQnlRIgjCPvcfPb9csFw4vhYs1eU8dDKs5sjlvG60Met+l6lqnu+Go3gi6dE7U0AsAtMOY6bQG3UZPdjdb7CdfXWRy1vtJo8XVpUlvXwnV61Ft753JNnzSp68MMWdtn2DptfX+fuiZSyhpTEcOUtRkbJxGtM9S/lQzTlBxHi8nPy2rIPvVkXJNpwBXp9pXDkH0LpKwvlVWOdKPjliqx7tfIbdPqztCyMBL1dYw6mck46WZZey2SYduhZRAYWCts6PaJMhu6XaA/3ezlkO887n8vKXXbPEZ9ZmRUXR92DmdJd8g+9QxLe1QZ5pb9uPXKoS9fI9Zv0/B9TL1Wj6rjodzXh6xGHeOX7HqWqe70lccE3xMAcAtM0NKWbFl7EeMPClrdrMgyg65FmRTXVLHM9IHcYylqrWKpbMYTNGSYlirxgE3Br+mbVvnysw1DplXRZmlqmXlxCqtaHyjXsBwm+SKeNF3DkFm2VEncNRRWN1UpB+sIhRsGaVrl9LpUXAvHoPQfZ7O8nviBYYw6mcms0p2hzGWWx4zLYerXh1CxFHSBa7ZSulKHCqvaTLmWmGVraFCVKd2xhbPjGmWVrjzRrpL1uLlqHKWtx1bQ6npwbvav3xaa8nHLfX3I6tZczzLWnUJRZljfjZQJYgAAlyZqaQPmSaZfdoEXJUur2DhmlC7n04t1k8v/JucdAObVBC1tAIDMwrXHvObx2GP6Us0iXX/aa6Ph1qDuAMBMELQBwDUprlky5al51Jjq5CFTTdcPuyga5YFueMBI1B0AmBmCNgC4NkWtVS2ZhpQ+SG1cU0y3oHASpSHj6IBhqDsAMDOMaQMAAACAOUZLGwAAAADMMYI2AAAAAJhjBG0AAAAAMMcI2oCxuGrUUxb5zW1a6QB5UO9eNL9dV61WU73BUQBwG/C9MymCthTRl+m1fZe6jev9PEzIV7tuy/EkJadX99uq12qqZ10wy5fkObJrXMhwXUbU3xyu/Tp5nfKex7n5ch1PkuQ5p3N77r/UxziH21QOvttQvV5TrXb5mP1+u2rEPq9Wq6k2+w/FdeN+Z2ITB21+u65avd377ncbtb7n+fhqhxeLgfM1DGxqEx5sv11XfcI05pLvqt0IvliCR12Nmd1wvCx8uY266rEvinqjfeU6V27jSE3PULmypuKk81oXilqrlGXIkT1Q6efTS3sO3RJTrb8YU0FF05AkGeaSXsSKZpzHSPLbdR3Zjrzg9wRM0ct5vqUE29EjLQ64gfc782bioK3redJiIVyTxZffVex5Xt3excI57T+g7qnT93xcXc/TS3c98tuqH9lqhr/cBjw5zSN+rRrKV7t+JNvprw+e05R9NOLC6jZkO5JRXtfqeJV8UGFV62VDcuzBHyvm0Et5Dt0Ws6i/GEthdVPValWbL2gRas5j9Itafw2VrYqq1WrvMfsqWtRa7/MsvYwLTc3f+ebLbdevv3v2DbvfmTcTBm1BkGYYi+Hzy6BrEqZpSn1dRlydOobM8JdJJBQKWjTMvgttxQove3Pc9eZF8tvHanqSjLKsSvRlUVFQbMN+BfLVbjmSUdb6lO94C6slmZKcVsqvU8BUzK7+Arjpwvs3s6RVmuBfbr6rRv1IdtOTjIl6yUuSjHJ/kF+tVlXdXB3aeMP9zvjGXFzbVaNm68q2L9NSNddPNEG6sizJtiUr/IXHbajWMmSZjuzmoqzqWqw7iS+33VKr6YS/YhgyzJLW14qXFcZtqGaPzq1RrmgzvJHx23UdNT2ZVlUlv6HjKG3DVHl9LeUXal9u41itWKuNYZgqrad1Pwrz6wx2QTCj/Z0St1GT7RgqVzZT8ny1eDn05Sssz3iZhX+ROBaSYZZVKq0OL4dRx23otqPSzSKqv2aiLqnXAtf0Ut4but8xflv1o6aU2CY4FsE5UUndxxHlPZZkmaWVb7SvKXUv3A/PKKuyuapCznMoKuNuuaLNVandOO61BBtmWetriQu676rdasnJdA7lkSyH9LoTlL1Urmyq6GY45/PmN9z+sjXckFle19pgwhmO25iuqL9BHU2p9z3heRNe18e6Tmbat5x1J3O6OUxwHo+W8t058nsyuW/p9TeznOfx7I5xdpfn5roKbiztlDwMvYYm6354fBetqpZO67IdTzLKqmwW5Yb1zTCtXito7utD5nLIW9fzyHNfooHzezqylkNclnxkSDfnMc6cbp46mfN8CyTzMOE5n+C3w/prmLKG1oWs4vU3X0JDz1WMNGFL25T5vrqSpKKWzMsuku6pI8MsqlhYlNSVHwvN3caR7Fjlljx5jq2jtP60uRjqtuo6iqftOWoOdJ0b0s3Oc2Qf1dU/rMy/zG9845fE4LEIuxu2BlutBrcdftwGtx2ebibuqRxJRrmUcnMajTVxlOihG3bRNWTmvMr57XrvRq864suqUDRlpHQNHsdgmaWVb0Grm0FXFMeO12tf7eOmPBkqr09y0yDJc9WoHfV13fWcpo76WjJ9tY+D7r2D51DyfMtnsBxG1x3nuJZyzg+ex7nyO7T78nEi3bT8ph238VxVfxcNY+D62ie8Pl/2rFCO6+QY+5ap7oyR7piynsfTNLhvo+vvbMzwGGfmyTlOpD0kD3l0W+HNvIL0WrGgyXNaA+enc5xWDsnrwxjlkLGuZ5fxviSccCcYhxT+mODYV49Nyih3OWSUJ908xzhPurOqk4N5mNI577tq1Gs6ana1WLZU2Zw0YJvMNO93bpOFd95554+SL8YZRlqXxEUtlUoqlQz5rVMZVlVvrpdUMl+V2znTvej5UvzLPYPnz/Re50x3zJI+tuirdfqKzOVzdY593Xv9Y7p77qp1eq57H1nW3TuS3Ia++6Nu8Kvnm+t6vVRSqWTK8J/p9MzRc6OkpUVJi0sqlUoqlUoy/JZOu6as6ptaD18rlUpavnsnlo331DnzdH5+LsO09Mab63q9ZMrwOzrtdvVKlK4kv/03sp3zoJvdG5/U+uuxPHQ9nT03LsvB/fsgv33blmQavjqnXRnmZbqTc/Xj41N1jdf0+sfu6nLvsgvK4XwwX76r1mlXH7j3kVi5hZ9nllV585PhsSjJNF7V81fuaOluLIGsxy1vulmF+b+3/Hpqed85f6bWwPHw9f6POzr7wBXlGdZhhWUT/ZpkmJY+fdXPSXfu6J/djs7Of0Xm8ojPuEqu8l3UkuGrdero1A/qalSnTevT+rd3o83ynUOSL7d1qrPumboyVLbe0CfXX1fJNOR3TtXtviKjtKQgG8/17Nlz3fu4FWzTy+/g+ZZP9rpzec6r/5x/9ZlOzzyd/5IZ2788+fXV/htbTl+64favdvV8cSm4linvccvr6vob1Psz3bkXfo7bUO27P9arZni9fdbR38XOmzzXyXz7lqPu5Eo3h0nO45Gi785S7/uza5hDviuz19/Mcp7HszvG2UXfQwPnZkoeMn9nhcfXOz+XUa7o08vP1To9U7d7LtOqyvoVV50zr3cuDC2HtOtDrnLIUddzyHxfEpbDeTKBuA/c00fG+T7KVQ5xQZkMPS+yppvzGGdON0+dzHm+zeScVxicH/3/dHZuyLQ2tfbhxfzHM1VYf886arVawcN15f/zB2TcveIzpnW/c8tM1tLm++rK0OWQNk9e/PkkiksyPUdu+1SOYab+IhD8cmzK6vvVs6DiWthfdtIIPmw6D9IuqLgUdBXt9n6KjgbumrI2403XBRXX1lUOfkYIf3UJx5MMbKuZ/GLrNmw502gpyctx5MamXywUV7W22n+TM9Zxy5BuVr4ftOde5fI467K/f45JduI3etkmGyiosCjJ88IW5/HkLt/iWjCWz7HVaLd1HPSXnFKXBVNWdfNyjEQhaEXvV9Dq2lpiHMXl+TaxHHXHKFf6z/mw773nuP0tlFnz67vB1Pp91xKFafd3q8p93HLJUH8XDRmxeh+cJ56cvulUU67vV14nx923q+vOeOnmk/88nrIc9XdmZnaMc8iQh9yS4zuNskpFqVBIVvJAluvDeOVwdV3PLsd9SWFVm8kJQEwr89ikUcYrh6vlTjfjMc6drmZUJzWDc76wqs2KJdPw5Nh1Ndrx77Mp8zw5zWGtk3HTud+5bcYK2vxwzZLaUVOePDWPwmZ025F6zwe7DORT1JLpqdkMukZenkSevK6kaKZKObKTU41Gzfxd/4pKM5q5dNVJEg3cTZuyOayQye5GhpH7V7O83EbQjce0xhvLNp6i1ixThjw17aNwyYG06fPzHres6WaXvFgPs1iYoPCcYx2Fwc/13ujlLd9Aca2isiE5zaa88ItrKlLOjeJaVdXkuCnfVaMeX7Iiup5MIn/dGTzmi0rtbJA1v92ge9LV15LxjttUFQqxa1Nw42eaZu+GNAjiFpUsopnt25V1Z8x083hh57HGqr+zMrNjnMPVeciv/95i8HnS1deHMcvhyrqexxj3JVM3ZjlcKX+6yWOafB7In65mUidneM4XilrbrKpSXlS3aeuo3phCuvFZP8NJ8CrlIPj3mjqeLAhAirGCtplJtNQFv1oMH4Nxs0xnZs3R/HCgvCfTqkyppSSH4po2qxVVrHLwi06zKfuoNvmUsjNKd9ivYVlb4kYyS+Evmq0bMq3tddTPIcIxX84sMjCLupMjv1OpS9cmuAH1vG5YH0wtlQwZniPXD5d3uYYfnebKiz6PZ1F/AcyvGZ/zhdW1oNVNTpDulFvdCoVVrUWzl2PqxgraovVlKmUjaE4OI2zLDJqeK9WqqtUptPIU10akE/5i1Pu8lMfQZv0p/8qUOq1+9MtN9Mt0+ItcSlPwdNagiwYeK5yNJ33Pp8E9Te5BXCFoyt+sqloNWm/6B/uOe9yuSjeHsBtYf5e3iKtWM+ha0v8jWnj8Un5tS7cYTPIRdkfIls+wzkx0Yzxe+fa601rhwpdXdm2Y3jnktpryJBllqz/PU7vwT1B3ou6NsW6FefIbteoO+4Hg0njHLbss9TfMQ9eX757KMQwtFopBHY5+kh3VvXKoWe3brNKNG+c8nrYJ6u+VpnUeX8exGN/o76wJDFwf5qgcMt2XzMqsyuGmpZuU9Xyb5TmvsNWtIqtsSJ6msF/9sv1YOY37ndtnrKAt0u37pTm6GFyfRcMImmAbbsYTIZohzZPjpt2w5xX1Ow/W9bpML5hqN7j3j7ooRN0SHLWiM8931a6HU0hPJJq63Zjq9KnRDadzGt3A+2HXy5QWBr+tRqMtt+9ARDMxRl1aA7mOW450MyusqmQGzfdH8ePmu2rXg64QgzNLRv2vg1aHbIpa27RkykudYWzAwA3AeHKVry5nxTPK61othgtfjujaMN1z6NJiYbG3377bVqM14YkxVt2Jbeu7ahwHAVpaN5hM+S0uBWNemkeJXzR9ue1GX53Ie9zyyVZ/gzx4vRl7C2F5eU5Lk9z3zmrfZpVuv5zn8bSMVX+zm/Z5fD3HYrRc31lj6b8+BLPs9l8fXnw55LkvmZ1ZlcNNSzeS6Xyb8Tnfr6Di6uaUu3378t1GMC7+ql5yme53fLUbwTCEabU03nRjrtMWcBs12d1wHacocFgctbbGaPG1UFJb1wbWzrlcZypNagAzZN2MYWvT9P19cq2X4MXBdXcihilrM9YnPVr7qn8rGaYpOY4Wk5+XUZTfoaK1tpKvX2nIvoU3dn3lMGTfAsm1n3Ict1zp5jAq3WHllXr8EwbqaPyzRud3aL3LbYzy7dvnEeu3Kds5lG2tncBV9Tc1D1mMOsaJYzEyD4l9GLltWn6HlJeUXEMxx3EbR4b6e7lvsbzF8j/+dTLPvmWvO/nSzWGC83ikoXUhMP41dQxD8nI9xzi7fHnI+J2VPL7JtMLn0WeOPOcH6mmecshT1/MYUg5KuS/pmXZecpTDkLoYGaue5TzGmdPNXSf730u6jnO+t77kMMPuea4yZJ+kcJbKEZkdWoZxfeUx/v6/TCZoaUu2rL2IMTEFrW5WZJlBd7dMimuqWGb65AJjKWqtYqlsxhM0ZJjhOhixV1VY1aZVvvxsw5BpVbRZmlpmpqyotUpZl7tmyCxbqmwGsyn1KaxqfaBcw3IYONFyHLdc6eYQzqaUPG7B/g25eBWD8S1es5XS7WSEwqo2g+kZZdeHreESzvgVzmw1mazl66px1ExZj62g1fVysIZK3/ptoSmfQ4XVTVXKwZotgfD4WkEexjZp3THC+pD4Rsmd3+JaOD4hWdfWEz9OZT1uY8pQfy8n6Yl1nwpbC6W0iRiymtW+zSrdFJnO4ymatP5eZcrn8bUei6FyfGflUCiWVDaN/rIyDJnlSkqAMy/lMPj9lnpfMjOzKoeblm4oy/k263N+5gwZZllWZXTAlvl+p1CUGdZh4xpah2+CiVragFtn1C9pE8j0qxNm5taU/4zqLwAAWdya79sZmKClDbiFwjXNvObx9Ma2+NNeGw0YYhb1FwCALLjfmQhBG5BTcS2alGAK65z4YRdFozzQDQ+YhanWXwAAsuB+Z2IEbUBuRa1VrWDcxKQ9zAoKB4YPGUcHTN0U6y8AAFlwvzMxxrQBAAAAwBwbq6VtYWEh+RIAAAAAYAbGCtoAAAAAANeDoA0AAAAA5hhBGwAAAADMMYI2AAAAAJhjBG0AAAAAMMcI2gAAAABgjhG0AQAAAMAcI2gDAAAAgDlG0AYAAAAAc4ygDQAAAADmGEEbAAAAAMwxgjYAAAAAmGMEbQAAAAAwxwjaAAAAAGCOEbQBAAAAwBwjaAMAAACAOUbQBgAAAABzjKANAAAAAOYYQRsAAAAAzDGCNgAAAACYYwRtAAAAADDHCNoAAAAAYI6NFbRdXFwkXwIAAAAAzMBYQRsAAAAA4HoQtAEAAADAHCNoAwAAAIA5duuCts7ehhYWFmKPDe11klsBAJBRZ08bfd8rC1rYOUxuBQDA2G5d0JZPR//4tQ19/zcW9Fe/v6efJ9++Fi84D6eHOvnahv7qNxbCx4Z++BfXG+X+/HhPP/z96PMX9Fe/v6Ef/sXhNZbFoX7Y2//E4zqPSXgsvt/3+Ts6Ob7e45G1Tr744zZO/c22b7Mybpn9/C8u9/GHx8l3ZyXPeZFn2xnKdQ51UurO1ccCAIBZuKVB27YOLi50cXGhi4snerCcePs0uHH7q99Y0d9+z5afePtazEUe9vT97S395Ht27EVb7//Ziv7qa9f1K/KhfvLHD/X+e7GX3rP1/p9t6a+vLQ/z4FA/DI9FX114b18/+eOV67lRz1Un5+C45am/ufZtVsYss9M9/e2fxfcR6fKcQ4f64W+spNSdIcdi+YGe9L5TDrSdfB8AgAnd0qBttH/88+DGTbL00S/v6oPJDa7BPORBSysqfHhbH/3yiT793y/06f9+oV//cng78r139Y/J7Wek8Kld/dp+8Pmf/u8X+vT+rgq63jxIUuF3L8uh9/jPD/TLyQ1n4Od/8VW9L6nwuwf69djnR8fj/f9vyo3klOWtky/8uOWov3n3bVbyl1lHJ//nQ/na1kd/10q+eS3ynBd5tp22POfQP35ta3Db/QN99MOSvvdVnZzGEgYA4BpMFrR1DrW3s9HXl39jY0eHaT1NbpB/9f/YVeFTB/r1//5EK+srybevxTzkQbqvX/3Pj7SyftkU+cvrj/Rrn5KkpvxruXG5r5UvPNC/Woq9tPRAH/1U7PktUjDv993g/vL6Z64twMhXJ+fhuGWvv/n2bVbyl9nP/+Jt/eQ96YNffnRt9eCmu/ocOtT735P04V392m/Htl26r5X/Y1cF2XrfvuFfcgCAG2eCoK2jvbe39HDfVl8HEntfWys7mv3v/jO0/kBvfKH/i/3azUMe5tTPj3f0k+9Jhd/9gv5V8s2X1C9bb6kg6f0/vhxX8/PTQ/3w97f0vix99HfuJ/9k+iask3N93Cbct1kZWWZht8jC757oV9eTbyIp9zn0b1YG68PSigqS/Kc/Tb4DAMBMTRC0SSpva/fgJOzHf6GLixMdbEvSvt4dM2o73EnMwJV8bOyJ3zhfpOhX6Lf0wXiLwEx1dBKbnOGv/3hfhd890Ru/nRyMOFv+n63EJi+45kkJlh7ojf1dffDD4bia31jQX29v6X1t69f2n2jl2o5FHvNx3Pq9iPqbR9YyC7tFfnhXvzbw3vXKc17k2XbqMp9Dr6nwYUnf29IP4xOUnB7q5GtBF0s9Pbm+fAMAMFnQtqwHjx7pwf34DcOy7n+GIdgvs2Csh6WP/h/XMw5lmPf/bEXfHzkL4IxFE0Rc58x3S1sq/JvEuKX3mvJPX2A55PSij9u81N880sos6BY5h/uR57zIs+20ZDqHlrXy/wrHuf1xLMgcmNQGAIDrM0HQFoxp29lIrHu2tZ/cKpf7j6JWuyGPJw/0Yn9Xvr3+8Wsb+tvvSR/88nW37Cxr5T/HJw4IJmfw/yw549us3NevJiZP+PX9cLKK9x7qb68lCLmczS6YHOFEv/YpS5KdMvPdvHjRx63fi6u/eWQos163yG+94P3Ic17k2XZWcpxD64/061/eDlrcIh/evpykJq3rJAAAMzR+0NbZ08bKlvZtfnl8+XX0j19b0N9+z9YHv/zix8/88nrQzakgyXeu42Zv0C8vPdCvRjMRXoPL2exO9MZv39cva1n/6gtPLme++/9cY2vFmF7ccZuv+ptHWpn93H4sP9nV8DcW9NfhtP/v/3HwPNk6dx3ynBd5tp2GvOfQL68/0huxAPrT//mRVpYkX1Lh37wW2xIAgNkbO2g7/NpD2ZKs3QOdxFvCgkFtY2NM27zp6OT3V8IWigv9amwmvtvu504z+dKMdOQ/lSRLH7T6y7838917rRe0tti8o/5etzznRZ5tJzOdc+gf//yh/JQ0AACYtbGDtkh55bVed8XO4Z52vjpZ98ib7HAn6Cq6sTPmLCxTMN08BDe8P3nPCm94k++nm24eBv389FA//D9H3zzNNg8d/fx4J1zQ+DrysKzCv1GwuK/dP3HDz4/fDSZG+HApWM8rYXp5mNz1H7fx6m8e083voLQy++XfftLXzbDX3TBcp+2DXw6eD05eMuv8ZjsvAtm2nV5+xz+HpE44y+SC/vZ7kj71hy+4WyoA4DZ65enTp79IvhhnmmbyJUlSZ29DKw+Hd43cPrjQo2uYhTyvIN9lHVw80tDsHe/or/54RPD54V39+sCCsIfaWdhS8FeWdk+e6EH6fUg2c5CHn//FRq/LVapryMOockifVU/XmAdLH/zykyHBwHXlIZAelFxvHvrqw4htr+u45aq/I/IrzXNdvxTtb3pd0DXmN+W8yLNtz3XlN9BXbqd7+v72w8GWt9R6kBTme/tAF/P4JQgAuJHGbmlbfvBEJ7vbupyHy5K1faCTg93Ya7fJfT2asGvo5G5DHiwVPrWrX9tPb0kIXFceht1savp5WH+kT+8f6IMf7j+7Ch/e1q/tD7tJn3IeJjIPx23aZp3fLGWWx3Xld9R5Ecmy7ZTzO9Y5pCCvH97Wr+2f6NNXBmwAAMzG2C1tN1WmlrYxdQ539PbWvmxtzyT9LMhDgDwE5iEPeZDf2SK/14GWNgDA9I3d0oZL0eQpK1v7siVtH1z/zQV5CJCHwDzkIQ/yO1vkFwCAm+2WBm372urNSLmhvSlNR2lZ2zo4ebFj+chDgDwE5iEPeZDf2SK/M9LZ00bvOyUahwcAwPTc0u6R8ckJpjDAHQBwe3X2tLESLIPTQ/dIAMAU3bqgDQAAAABuklvaPRIAAAAAbgaCNgAAAACYYwRtAAAAADDHCNowQ4fa2djRYfLl3KaVDgAAAHDzELRN7FA7vamew8cO4YXU0d7GlvZtSZMuqdCRZO9ra4HADQAAALfPSxG0dfY2tMEN/cyMU76HOyt6aFvaPXmk+5Mup7B8X49OdmVpX1sExAAAALhlXoqg7actu399nGt1X48uLnRxcaGLiwNtJ99+CeQu38Mdbe1L1u63prf+3fIDfWvXkva3RNwGAACA2+SlCNowTzra++q+ZO3qW1OL2ALLD/5Q25L2v7o3cY9LAAAA4KYYK2g73FnQwsjucuE4r3iTSOdQezsb2oiN/drY2NFh4u67s7ehhYUN7XU6Otzbudx+Y0d78W0Pd3rpbO1L0r62EmPLNvr+IK/E5y9saGPncArBQoZ0O3vaWFjQzqF0uLMR7v+eOupoL3y+MdDclCHd6yjfw6/poS1Zb21pZMiWsT70u68v7FqS/VBfS+4+AAAA8JIaK2h7rWRJaupk2A1250RNSVbptegF7b29pYf7/d3sbHtfWytpwZ+tx2+vaOvh/uX29r4epm47G4c7ic+XLXt/Sysbk7Xy5Em3+dUNbe2HW9qP9bWdt/UwfG7vf7UvyMqT7izL9/DdfUmW3toaFbLlrQ+XlrfekiVp/91RWwEAAAAvj7GCtuWVsiRbrZ+GLxzuhK034fOftmRLKq/EbtzL29o9OAnHfl3o4uJEB9uStK+0+2/blqztA50M2/b+o15awXvbOuilHTyejNs9LxyTpd7nR3mYsJUnZ7q2bcvaPdHFwbYkW/v7trYPLnSyaw2Uf550NbPy7eikKcl6SyNjNuWvDz3LW3rLktQ8SQlGAQAAgJfPWEGbXispuG8Obps7J82g9eYgfhttqdfQpmU9ePRID/qmEVzW/c+MmLZj+0BPHt0Pu9hdbht95iwFrUXbOuh9voI8PArHVI2MKobLnW5yXJi1qy/cj4LmS7nT1azK96dqBdH66K6R49SHnmUFvxm0FMWsAAAAwMtsvKBteUWXYUNHB49tbW9vy358oE4viCsr3tCmzqF2NsLxWdEjGCyVavsz95MvXZOwtShlDNfCwpb2NW4rT/50k+PCks8D+dPVCy3fUM76AAAAANxW4wVtek0lS7JbPw1bV7b1mS+UZNmPddAJpoiXVVKvoa2zp42VLe3buSaOx8uK+gAAAABkNmbQFnZRa56oc/iu9q2SXlve0ltWrItkrIvc4dceypZk7cbHXF2EY7WmZcTEKLmE+2bt9uc1/njyIKXF6yo3Ld2kLOUbBPNpLXtxk9WHaNxc7EcBAAAA4CU2ZtAWziBpt3Tw7n7YbW9ZW29Zsh9/Te82k1sHyiuv9YKHzuGedr46ne5wwWyWth4fDE5xP45g3x7q7Z1DdaaRYOimpRvJXr7ReLOgxfUqY9WHzoEeZxo3BwAAALwcxg7aAvt6uH85vfvySlmy97Vvx6f7j276pf2tld74pZWth4pms59UNDGH/XBLK7ExUqnriGWw/OBb2rUUTJm/khwnFqyf1hNbz6w3hmx/KzUPudLNYVbpRvKUbzCZSHJSmn6T1IfOwWPZ8zAmDwAAALgmYwdtlzMYxiYcuf8ZRR3c4tP9Lz94opPdbQW36pJkBdPNH+zGXpvA/Uc6OdiWNZXEJGlZD54EU+ZPLUnpBqYbylO+978QBJAPvzZ0vbXx60Mw6U00iyYAAABwG7zy9OnTXyRfjDNNM/kSMNrhjha29mXtnqSs5Ta+zt6GVh4Ga9U9ImgDAADALTF2Sxsw1P1HOtiW7IdvXy64PqnOnt5+aEvbBwRsAAAAuFVuQdB2qJ3EGK/hj52hXfqQz/1HB9qWrYcrOzqcNHDrHGpn5aFsa1cnRGwAAAC4ZW5B0IYX474eXRxo25ImnuZxWZK1rYOpLF0AAAAA3CyMaQMAAACAOUZLGwAAAADMMYI2AAAAAJhjBG0AAAAAMMf+/5vIoreYPrWrAAAAAElFTkSuQmCC;" vertex="1" parent="1">
          <mxGeometry x="398" y="1520" width="877" height="466" as="geometry" />
        </mxCell>
      </root>
    </mxGraphModel>
  </diagram>
</mxfile>
